<svg width="33" height="33" viewBox="0 0 33 33" fill="none" xmlns="http://www.w3.org/2000/svg"> <path opacity="0.1" fill-rule="evenodd" clip-rule="evenodd" d="M0 16.5C0 7.3873 7.3873 0 16.5 0C25.6127 0 33 7.3873 33 16.5C33 25.6127 25.6127 33 16.5 33C7.3873 33 0 25.6127 0 16.5Z" fill="#FFFFFF"/> <path fill-rule="evenodd" clip-rule="evenodd" d="M25.3002 23.71V15.8531C25.3002 14.0204 25.2695 11.8588 23.3026 11.8588C21.3374 11.8588 21.0634 13.4156 21.0634 15.7115V23.71H13.5636V9H20.9879V11.0903C21.4159 10.3296 22.2193 9.28578 24.0979 9.28578C28.0143 9.28578 29.9796 12.8472 29.9796 18.3761V23.71H25.3002ZM6.85355 23.71H10.4452V9H6.85355V23.71ZM8.64934 7C9.81659 7 10.7602 6.05639 10.7602 4.88846C10.7602 3.72054 9.81659 2.77734 8.64934 2.77734C7.4821 2.77734 6.53845 3.72054 6.53845 4.88846C6.53845 6.05639 7.4821 7 8.64934 7ZM7.25215 23.71H3.66046V9H7.25215V23.71Z" fill="#FFFFFF"/> </svg>