<svg id="Calque_1" data-name="Calque 1" xmlns="http://www.w3.org/2000/svg" xmlns:xlink="http://www.w3.org/1999/xlink" viewBox="0 0 1928 102"><defs><style>.cls-1,.cls-2,.cls-3,.cls-4{fill:none;}.cls-2{stroke-width:7px;}.cls-2,.cls-3,.cls-4{stroke:url(#Dégradé_sans_nom_17);}.cls-3{stroke-width:4px;opacity:0.5;}.cls-3,.cls-4{isolation:isolate;}.cls-4{stroke-width:3px;opacity:0.2;}</style><linearGradient id="Dégradé_sans_nom_17" x1="964" y1="104" x2="964" y2="2" gradientTransform="matrix(1, 0, 0, -1, 0, 104)" gradientUnits="userSpaceOnUse"><stop offset="0.27" stop-color="#fff" stop-opacity="0"/><stop offset="1" stop-color="#eb711c"/></linearGradient></defs><rect class="cls-1" width="1928" height="102"/><path class="cls-2" d="M1690.5,51a.34.34,0,0,1,0,.12,1.8,1.8,0,0,1-.25.45,8.28,8.28,0,0,1-2,1.76A43.88,43.88,0,0,1,1678,58c-9.45,3.22-23.56,6.39-42,9.43C1599.28,73.47,1546,79,1479.94,83.57,1347.94,92.79,1165.53,98.5,964,98.5S580.06,92.79,448.06,83.57C382,79,328.71,73.47,291.94,67.4c-18.42-3-32.53-6.21-42-9.43a43.88,43.88,0,0,1-10.21-4.64,8.28,8.28,0,0,1-2-1.76,1.8,1.8,0,0,1-.25-.45.34.34,0,0,1,0-.12h0a.34.34,0,0,1,0-.12,1.8,1.8,0,0,1,.25-.45,8.28,8.28,0,0,1,2-1.76A43.88,43.88,0,0,1,250,44c9.45-3.22,23.56-6.39,42-9.43C328.71,28.53,382,23,448.06,18.43,580.06,9.21,762.47,3.5,964,3.5s383.94,5.71,515.94,14.93c66,4.61,119.34,10.1,156.12,16.17,18.42,3,32.53,6.21,42,9.43a43.88,43.88,0,0,1,10.21,4.64,8.28,8.28,0,0,1,2,1.76,1.8,1.8,0,0,1,.25.45A.34.34,0,0,1,1690.5,51Z"/><path class="cls-3" d="M1825,51a2.11,2.11,0,0,1-.64,1.32,11.1,11.1,0,0,1-2.82,2.17,59.3,59.3,0,0,1-12.63,4.87c-11.35,3.28-28.2,6.46-50,9.51-43.59,6.09-106.72,11.58-184.78,16.2C1418,94.29,1202.28,100,964,100S510,94.29,353.89,85.07C275.82,80.45,212.69,75,169.1,68.87c-21.81-3.05-38.65-6.23-50-9.51a59.3,59.3,0,0,1-12.63-4.87,11.1,11.1,0,0,1-2.82-2.17,1.68,1.68,0,0,1,0-2.64,11.1,11.1,0,0,1,2.82-2.17,59.3,59.3,0,0,1,12.63-4.87c11.36-3.28,28.2-6.46,50-9.51C212.69,27,275.82,21.55,353.89,16.93,510,7.71,725.72,2,964,2s454,5.71,610.12,14.93c78.06,4.62,141.19,10.11,184.78,16.2,21.81,3,38.66,6.23,50,9.51a59.3,59.3,0,0,1,12.63,4.87,11.1,11.1,0,0,1,2.82,2.17A2.11,2.11,0,0,1,1825,51Z"/><path class="cls-4" d="M1926.5,51a2.4,2.4,0,0,1-.84,1.59,12.78,12.78,0,0,1-3.33,2.29A71.06,71.06,0,0,1,1908,59.83c-12.75,3.29-31.61,6.48-56,9.53-48.73,6.1-119.28,11.59-206.49,16.2C1471.16,94.79,1230.18,100.5,964,100.5S456.84,94.79,282.43,85.56C195.21,81,124.67,75.46,75.94,69.36c-24.37-3-43.23-6.24-56-9.53A71.06,71.06,0,0,1,5.67,54.88a12.78,12.78,0,0,1-3.33-2.29,1.92,1.92,0,0,1,0-3.18,12.78,12.78,0,0,1,3.33-2.29A71.06,71.06,0,0,1,20,42.17c12.75-3.29,31.61-6.48,56-9.53,48.73-6.1,119.27-11.59,206.49-16.2C456.84,7.21,697.82,1.5,964,1.5s507.16,5.71,681.57,14.94c87.21,4.61,157.76,10.1,206.49,16.2,24.37,3,43.23,6.24,56,9.53a71.06,71.06,0,0,1,14.29,4.95,12.78,12.78,0,0,1,3.33,2.29A2.4,2.4,0,0,1,1926.5,51Z"/></svg>