<svg id="Calque_1" data-name="Calque 1" xmlns="http://www.w3.org/2000/svg" viewBox="0 0 560.71 424.56"><defs><style>.cls-1{fill:#f07018;}.cls-2{fill:#d0cd00;}.cls-3{fill:#3b4994;}.cls-4{fill:#488ec1;}</style></defs><path class="cls-1" d="M399.81,316.27v73.26q-11.13-4.09-27.11-4.11a115,115,0,0,0-17.13,1.15v-70.3Z" transform="translate(-252.1 -316.27)"/><path class="cls-2" d="M386.69,459.3c4.61,1,9,2,13.12,3V512.5c-2.81-.84-6-1.7-9.63-2.61q-12-3-29.91-6.7c-1.6-.37-3.19-.77-4.7-1.12V451.9Q367.24,455.18,386.69,459.3Z" transform="translate(-252.1 -316.27)"/><path class="cls-1" d="M374.63,583.93a127.75,127.75,0,0,0,25.18-2.22v72H355.57v-71.1A125,125,0,0,0,374.63,583.93Z" transform="translate(-252.1 -316.27)"/><path class="cls-3" d="M581,465.43a89.4,89.4,0,0,0,85.62,89.34v53a142.41,142.41,0,0,1,0-284.72v53A89.42,89.42,0,0,0,581,465.43Z" transform="translate(-252.1 -316.27)"/><path class="cls-4" d="M727.89,637.52h84.92v15.8H678.44V554.48a89.42,89.42,0,0,0,0-178.13V323.24a142.43,142.43,0,0,1,49.45,272.51Z" transform="translate(-252.1 -316.27)"/><rect class="cls-3" x="241.39" y="119.72" width="149.39" height="22.72" rx="11.36"/><rect class="cls-3" x="241.39" y="154.69" width="149.39" height="22.72" rx="11.36"/><path class="cls-1" d="M485.13,513.78A63.67,63.67,0,0,0,470,491.16a66.5,66.5,0,0,0-11.56-8.75,122.81,122.81,0,0,0-15.25-7.77,192.9,192.9,0,0,0-22.71-7.26q-9.18-2.49-20.67-5.12c-4.14-1-8.51-2-13.12-3q-19.45-4.12-31.12-7.4a98.77,98.77,0,0,1-13-4.45q-10.89-4.84-16.41-11.63t-5.54-17.48q0-16.33,13-24.48,8.28-5.21,21.9-7.08a124.32,124.32,0,0,1,17.13-1.07q16,0,27.11,3.82a43.13,43.13,0,0,1,10.48,5.12q13.08,8.94,17.36,26.6l55.55-7.59Q475.8,377,450.29,361q-18.57-11.55-50.48-14.73-12-1.19-25.95-1.19-9.56,0-18.29.65-39.93,2.87-62.79,19.06-27.86,19.69-27.86,56.79,0,21.78,8.15,36.33a62.29,62.29,0,0,0,22.74,23.3,145.85,145.85,0,0,0,13.59,7.09A137.57,137.57,0,0,0,328,494.93q10.31,3,27.53,7.14c1.51.35,3.1.75,4.7,1.12q17.88,3.71,29.91,6.7c3.61.91,6.82,1.77,9.63,2.61,3.47,1,6.33,2,8.61,2.93q12.65,5.07,19.44,12.62c4.51,5.05,6.79,11.45,6.79,19.22q0,18.26-15,27.39c-5.24,3.19-11.85,5.54-19.88,7.05a135.87,135.87,0,0,1-25.18,2.08,133.8,133.8,0,0,1-19.06-1.26C345.1,581,336.4,578.2,329.39,574q-16.31-9.81-21.95-31.56l-55.34,9.12q15.6,68.6,103.47,74.57c5.61.4,11.45.58,17.53.58a260.82,260.82,0,0,0,26.71-1.28q38.29-3.95,60.77-20,29.81-21.25,29.81-61.46Q490.39,526.9,485.13,513.78Z" transform="translate(-252.1 -316.27)"/><path class="cls-1" d="M403.54,724.94q0,7.72-5.73,11.81T381,740.83q-20,0-23.24-14.44l10.63-1.75a9.43,9.43,0,0,0,4.22,6.06c2.09,1.26,5,1.89,8.69,1.89s6.74-.59,8.65-1.76a5.74,5.74,0,0,0,2.87-5.26,5.32,5.32,0,0,0-1.3-3.69,9.77,9.77,0,0,0-3.73-2.42,27.75,27.75,0,0,0-3.51-1.07c-1.54-.38-3.46-.81-5.74-1.28q-4-.93-6.19-1.59a24.44,24.44,0,0,1-3.58-1.27,28.24,28.24,0,0,1-2.62-1.36,12,12,0,0,1-4.36-4.47,14.19,14.19,0,0,1-1.57-7q0-7.12,5.36-10.91t15.57-3.78q9.76,0,14.68,3.06t6.32,10.1l-10.67,1.46a8.25,8.25,0,0,0-3.34-5.11c-1.68-1.15-4.08-1.72-7.22-1.72q-5,0-7.49,1.57a5.17,5.17,0,0,0-2.5,4.7,5.09,5.09,0,0,0,1.06,3.35,8.28,8.28,0,0,0,3.15,2.24,50.74,50.74,0,0,0,8.47,2.28c2.51.55,4.68,1.06,6.49,1.55a35.48,35.48,0,0,1,4.36,1.4,21.58,21.58,0,0,1,2.93,1.49,12.41,12.41,0,0,1,2.22,1.68,12.12,12.12,0,0,1,2.91,4.34A15.56,15.56,0,0,1,403.54,724.94Z" transform="translate(-252.1 -316.27)"/><path class="cls-1" d="M462.73,713.57a29.82,29.82,0,0,1-3.3,14.34,23.61,23.61,0,0,1-9.29,9.53,28,28,0,0,1-14,3.39,28.68,28.68,0,0,1-14.17-3.3,22.26,22.26,0,0,1-9.11-9.42,31.28,31.28,0,0,1-3.16-14.54,30.85,30.85,0,0,1,3.14-14.44,21.6,21.6,0,0,1,9.11-9.19,33.39,33.39,0,0,1,28.55,0,22,22,0,0,1,9.1,9.23A30.45,30.45,0,0,1,462.73,713.57Zm-11.23,0q0-8.51-4-13.34t-11.3-4.83q-7.38,0-11.41,4.79t-4,13.38a24.12,24.12,0,0,0,1.87,9.92,14,14,0,0,0,13.5,8.69q7.38,0,11.39-4.85T451.5,713.57Z" transform="translate(-252.1 -316.27)"/><path class="cls-1" d="M510.25,731.58v8.5h-39.2V687.53h11v44.05Z" transform="translate(-252.1 -316.27)"/><path class="cls-3" d="M560.56,731.58v8.5H517.71V687.53H559V696H528.71v13.21h28v8.5h-28v13.84Z" transform="translate(-252.1 -316.27)"/><path class="cls-3" d="M581.12,726.66l-4.67,13.42h-11l19.17-52.55h13l19.1,52.55H605.81l-4.67-13.42Zm10-31c-.25,1-.6,2.19-1,3.58s-.77,2.38-1,2.95l-5.52,16.23h15.1L593,701.82c-.35-1-.67-2.06-1-3.1S591.44,696.64,591.11,695.62Z" transform="translate(-252.1 -316.27)"/><path class="cls-3" d="M666.68,724.94q0,7.72-5.73,11.81t-16.8,4.08q-19.95,0-23.24-14.44l10.63-1.75a9.46,9.46,0,0,0,4.22,6.06c2.09,1.26,5,1.89,8.69,1.89s6.74-.59,8.65-1.76a5.74,5.74,0,0,0,2.87-5.26,5.32,5.32,0,0,0-1.3-3.69,9.77,9.77,0,0,0-3.73-2.42,27.75,27.75,0,0,0-3.51-1.07q-2.31-.57-5.74-1.28-4-.93-6.19-1.59a24.44,24.44,0,0,1-3.58-1.27,26.87,26.87,0,0,1-2.61-1.36,12,12,0,0,1-4.37-4.47,14.19,14.19,0,0,1-1.57-7q0-7.12,5.36-10.91t15.57-3.78q9.76,0,14.68,3.06t6.32,10.1l-10.67,1.46a8.25,8.25,0,0,0-3.34-5.11c-1.68-1.15-4.08-1.72-7.22-1.72q-5,0-7.49,1.57a5.17,5.17,0,0,0-2.5,4.7,5.09,5.09,0,0,0,1.06,3.35,8.28,8.28,0,0,0,3.15,2.24,50.74,50.74,0,0,0,8.47,2.28c2.51.55,4.68,1.06,6.49,1.55a36.29,36.29,0,0,1,4.37,1.4,22.67,22.67,0,0,1,2.92,1.49,12.41,12.41,0,0,1,2.22,1.68,12.12,12.12,0,0,1,2.91,4.34A15.56,15.56,0,0,1,666.68,724.94Z" transform="translate(-252.1 -316.27)"/><path class="cls-4" d="M716.59,703.34a16.47,16.47,0,0,1-2.2,8.62,14.66,14.66,0,0,1-6.25,5.65,21.59,21.59,0,0,1-9.64,2H683.06v20.47h-7.13V687.53h22.12q8.84,0,13.69,4.14T716.59,703.34Zm-7.17.08q0-10.18-12.23-10.18H683.06V714h14.43q6,0,9-2.63T709.42,703.42Z" transform="translate(-252.1 -316.27)"/><path class="cls-4" d="M728.52,724.72l-6,15.36H715.1l21.44-52.55h8.09l21.12,52.55h-7.28l-6-15.36Zm12-31.82c-.43,1.39-.93,2.94-1.52,4.65s-1.12,3.2-1.62,4.49l-6.68,17.12h19.66l-6.75-17.34c-.35-.87-.81-2.11-1.38-3.7S741.07,694.79,740.5,692.9Z" transform="translate(-252.1 -316.27)"/><path class="cls-4" d="M789.21,718.3v21.78h-7.09V718.3L761.9,687.53h7.83l16,25,15.93-25h7.84Z" transform="translate(-252.1 -316.27)"/></svg>