<svg id="Calque_1" data-name="Calque 1" xmlns="http://www.w3.org/2000/svg" viewBox="0 0 143.29 59"><defs><style>.cls-1{fill:#e8731b;fill-rule:evenodd;}</style></defs><path class="cls-1" d="M8.43,4.21A4.22,4.22,0,1,1,4.21,0,4.22,4.22,0,0,1,8.43,4.21Zm16.86,0A4.22,4.22,0,1,1,21.07,0,4.22,4.22,0,0,1,25.29,4.21ZM37.93,8.43a4.22,4.22,0,1,0-4.22-4.22A4.21,4.21,0,0,0,37.93,8.43ZM59,4.21A4.22,4.22,0,1,1,54.79,0,4.22,4.22,0,0,1,59,4.21ZM71.64,8.43a4.22,4.22,0,1,0-4.21-4.22A4.22,4.22,0,0,0,71.64,8.43ZM92.71,4.21A4.21,4.21,0,1,1,88.5,0,4.21,4.21,0,0,1,92.71,4.21Zm12.65,4.22a4.22,4.22,0,1,0-4.22-4.22A4.22,4.22,0,0,0,105.36,8.43Z"/><path class="cls-1" d="M42.14,21.07a4.22,4.22,0,1,1-4.21-4.21A4.22,4.22,0,0,1,42.14,21.07Zm-16.86,0a4.21,4.21,0,1,1-4.21-4.21A4.21,4.21,0,0,1,25.28,21.07Zm29.5,4.22a4.22,4.22,0,1,0-4.21-4.22A4.22,4.22,0,0,0,54.78,25.29Zm21.08-4.22a4.22,4.22,0,1,1-4.22-4.21A4.22,4.22,0,0,1,75.86,21.07ZM88.5,25.29a4.22,4.22,0,1,0-4.22-4.22A4.21,4.21,0,0,0,88.5,25.29Zm21.07-4.22a4.22,4.22,0,1,1-4.21-4.21A4.22,4.22,0,0,1,109.57,21.07Zm12.64,4.22A4.22,4.22,0,1,0,118,21.07,4.22,4.22,0,0,0,122.21,25.29Z"/><path class="cls-1" d="M59,37.93a4.22,4.22,0,1,1-4.21-4.22A4.21,4.21,0,0,1,59,37.93Zm-16.86,0a4.22,4.22,0,1,1-4.21-4.22A4.2,4.2,0,0,1,42.14,37.93Zm29.5,4.21a4.22,4.22,0,1,0-4.21-4.21A4.21,4.21,0,0,0,71.64,42.14Zm21.07-4.21a4.21,4.21,0,1,1-4.21-4.22A4.2,4.2,0,0,1,92.71,37.93Zm12.65,4.21a4.22,4.22,0,1,0-4.22-4.21A4.21,4.21,0,0,0,105.36,42.14Zm21.07-4.21a4.22,4.22,0,1,1-4.22-4.22A4.21,4.21,0,0,1,126.43,37.93Zm12.64,4.21a4.22,4.22,0,1,0-4.21-4.21A4.21,4.21,0,0,0,139.07,42.14Z"/><path class="cls-1" d="M25.29,54.79a4.22,4.22,0,1,1-4.22-4.22A4.22,4.22,0,0,1,25.29,54.79Zm-16.86,0a4.22,4.22,0,1,1-4.22-4.22A4.22,4.22,0,0,1,8.43,54.79ZM37.93,59a4.22,4.22,0,1,0-4.22-4.21A4.21,4.21,0,0,0,37.93,59ZM59,54.79a4.22,4.22,0,1,1-4.21-4.22A4.22,4.22,0,0,1,59,54.79ZM71.64,59a4.22,4.22,0,1,0-4.21-4.21A4.22,4.22,0,0,0,71.64,59Zm21.07-4.21a4.21,4.21,0,1,1-4.21-4.22A4.21,4.21,0,0,1,92.71,54.79ZM105.36,59a4.22,4.22,0,1,0-4.22-4.21A4.22,4.22,0,0,0,105.36,59Z"/></svg>