<svg id="Calque_1" data-name="Calque 1" xmlns="http://www.w3.org/2000/svg" viewBox="0 0 143.29 59"><defs><style>.cls-1{fill:#e8731b;fill-rule:evenodd;}</style></defs><path class="cls-1" d="M-30.57,4.21a4.22,4.22,0,0,1-4.22,4.22A4.22,4.22,0,0,1-39,4.21,4.22,4.22,0,0,1-34.79,0,4.22,4.22,0,0,1-30.57,4.21Zm16.86,0a4.22,4.22,0,0,1-4.22,4.22,4.21,4.21,0,0,1-4.21-4.22A4.21,4.21,0,0,1-17.93,0,4.22,4.22,0,0,1-13.71,4.21ZM-1.07,8.43A4.21,4.21,0,0,0,3.14,4.21,4.21,4.21,0,0,0-1.07,0,4.22,4.22,0,0,0-5.29,4.21,4.22,4.22,0,0,0-1.07,8.43ZM20,4.21A4.22,4.22,0,1,1,15.79,0,4.22,4.22,0,0,1,20,4.21ZM32.64,8.43a4.22,4.22,0,1,0-4.21-4.22A4.22,4.22,0,0,0,32.64,8.43ZM53.71,4.21A4.21,4.21,0,1,1,49.5,0,4.21,4.21,0,0,1,53.71,4.21ZM66.36,8.43a4.22,4.22,0,1,0-4.22-4.22A4.22,4.22,0,0,0,66.36,8.43Z" transform="translate(39)"/><path class="cls-1" d="M3.14,21.07a4.22,4.22,0,0,1-4.21,4.22,4.22,4.22,0,0,1-4.22-4.22,4.21,4.21,0,0,1,4.22-4.21A4.21,4.21,0,0,1,3.14,21.07Zm-16.86,0a4.21,4.21,0,0,1-4.21,4.22,4.21,4.21,0,0,1-4.21-4.22,4.2,4.2,0,0,1,4.21-4.21A4.2,4.2,0,0,1-13.72,21.07Zm29.5,4.22a4.22,4.22,0,1,0-4.21-4.22A4.22,4.22,0,0,0,15.78,25.29Zm21.08-4.22a4.22,4.22,0,1,1-4.22-4.21A4.22,4.22,0,0,1,36.86,21.07ZM49.5,25.29a4.22,4.22,0,1,0-4.22-4.22A4.21,4.21,0,0,0,49.5,25.29Zm21.07-4.22a4.22,4.22,0,1,1-4.21-4.21A4.22,4.22,0,0,1,70.57,21.07Zm12.64,4.22A4.22,4.22,0,1,0,79,21.07,4.22,4.22,0,0,0,83.21,25.29Z" transform="translate(39)"/><path class="cls-1" d="M20,37.93a4.22,4.22,0,1,1-4.21-4.22A4.21,4.21,0,0,1,20,37.93Zm-16.86,0a4.2,4.2,0,0,1-4.21,4.21,4.21,4.21,0,0,1-4.22-4.21,4.22,4.22,0,0,1,4.22-4.22A4.21,4.21,0,0,1,3.14,37.93Zm29.5,4.21a4.22,4.22,0,1,0-4.21-4.21A4.21,4.21,0,0,0,32.64,42.14Zm21.07-4.21a4.21,4.21,0,1,1-4.21-4.22A4.2,4.2,0,0,1,53.71,37.93Zm12.65,4.21a4.22,4.22,0,1,0-4.22-4.21A4.2,4.2,0,0,0,66.36,42.14Zm21.07-4.21a4.22,4.22,0,1,1-4.22-4.22A4.21,4.21,0,0,1,87.43,37.93Zm12.64,4.21a4.22,4.22,0,1,0-4.21-4.21A4.21,4.21,0,0,0,100.07,42.14Z" transform="translate(39)"/><path class="cls-1" d="M-13.71,54.79A4.22,4.22,0,0,1-17.93,59a4.21,4.21,0,0,1-4.21-4.21,4.21,4.21,0,0,1,4.21-4.22A4.22,4.22,0,0,1-13.71,54.79Zm-16.86,0A4.22,4.22,0,0,1-34.79,59,4.22,4.22,0,0,1-39,54.79a4.22,4.22,0,0,1,4.21-4.22A4.22,4.22,0,0,1-30.57,54.79ZM-1.07,59a4.21,4.21,0,0,0,4.21-4.21,4.21,4.21,0,0,0-4.21-4.22,4.22,4.22,0,0,0-4.22,4.22A4.22,4.22,0,0,0-1.07,59ZM20,54.79a4.22,4.22,0,1,1-4.21-4.22A4.22,4.22,0,0,1,20,54.79ZM32.64,59a4.22,4.22,0,1,0-4.21-4.21A4.22,4.22,0,0,0,32.64,59Zm21.07-4.21a4.21,4.21,0,1,1-4.21-4.22A4.21,4.21,0,0,1,53.71,54.79ZM66.36,59a4.22,4.22,0,1,0-4.22-4.21A4.22,4.22,0,0,0,66.36,59Z" transform="translate(39)"/></svg>