<svg id="Calque_1" data-name="Calque 1" xmlns="http://www.w3.org/2000/svg" viewBox="0 0 2010 423"><defs><style>.cls-1{fill:#fff;}.cls-2{fill:#e8731b;fill-rule:evenodd;}</style></defs><rect class="cls-1" width="2010" height="423"/><path class="cls-2" d="M350,2.5A2.5,2.5,0,1,1,347.5,0,2.5,2.5,0,0,1,350,2.5Zm10,0A2.5,2.5,0,1,1,357.5,0,2.5,2.5,0,0,1,360,2.5ZM367.5,5A2.5,2.5,0,1,0,365,2.5,2.5,2.5,0,0,0,367.5,5ZM380,2.5A2.5,2.5,0,1,1,377.5,0,2.5,2.5,0,0,1,380,2.5ZM387.5,5A2.5,2.5,0,1,0,385,2.5,2.5,2.5,0,0,0,387.5,5ZM400,2.5A2.5,2.5,0,1,1,397.5,0,2.5,2.5,0,0,1,400,2.5ZM407.5,5A2.5,2.5,0,1,0,405,2.5,2.5,2.5,0,0,0,407.5,5Z"/><path class="cls-2" d="M360,12.5a2.5,2.5,0,1,1-2.5-2.5A2.5,2.5,0,0,1,360,12.5Zm10,0a2.5,2.5,0,1,1-2.5-2.5A2.5,2.5,0,0,1,370,12.5Zm7.5,2.5a2.5,2.5,0,1,0-2.5-2.5A2.5,2.5,0,0,0,377.5,15ZM390,12.5a2.5,2.5,0,1,1-2.5-2.5A2.5,2.5,0,0,1,390,12.5Zm7.5,2.5a2.5,2.5,0,1,0-2.5-2.5A2.5,2.5,0,0,0,397.5,15ZM410,12.5a2.5,2.5,0,1,1-2.5-2.5A2.5,2.5,0,0,1,410,12.5Zm7.5,2.5a2.5,2.5,0,1,0-2.5-2.5A2.5,2.5,0,0,0,417.5,15Z"/><path class="cls-2" d="M370,22.5a2.5,2.5,0,1,1-2.5-2.5A2.5,2.5,0,0,1,370,22.5Zm10,0a2.5,2.5,0,1,1-2.5-2.5A2.5,2.5,0,0,1,380,22.5Zm7.5,2.5a2.5,2.5,0,1,0-2.5-2.5A2.5,2.5,0,0,0,387.5,25ZM400,22.5a2.5,2.5,0,1,1-2.5-2.5A2.5,2.5,0,0,1,400,22.5Zm7.5,2.5a2.5,2.5,0,1,0-2.5-2.5A2.5,2.5,0,0,0,407.5,25ZM420,22.5a2.5,2.5,0,1,1-2.5-2.5A2.5,2.5,0,0,1,420,22.5Zm7.5,2.5a2.5,2.5,0,1,0-2.5-2.5A2.5,2.5,0,0,0,427.5,25Z"/><path class="cls-2" d="M350,32.5a2.5,2.5,0,1,1-2.5-2.5A2.5,2.5,0,0,1,350,32.5Zm10,0a2.5,2.5,0,1,1-2.5-2.5A2.5,2.5,0,0,1,360,32.5Zm7.5,2.5a2.5,2.5,0,1,0-2.5-2.5A2.5,2.5,0,0,0,367.5,35ZM380,32.5a2.5,2.5,0,1,1-2.5-2.5A2.5,2.5,0,0,1,380,32.5Zm7.5,2.5a2.5,2.5,0,1,0-2.5-2.5A2.5,2.5,0,0,0,387.5,35ZM400,32.5a2.5,2.5,0,1,1-2.5-2.5A2.5,2.5,0,0,1,400,32.5Zm7.5,2.5a2.5,2.5,0,1,0-2.5-2.5A2.5,2.5,0,0,0,407.5,35Z"/><path class="cls-2" d="M8.43,248.21A4.22,4.22,0,1,1,4.21,244,4.22,4.22,0,0,1,8.43,248.21Zm16.86,0A4.22,4.22,0,1,1,21.07,244,4.22,4.22,0,0,1,25.29,248.21Zm12.64,4.22a4.22,4.22,0,1,0-4.22-4.22A4.21,4.21,0,0,0,37.93,252.43ZM59,248.21A4.22,4.22,0,1,1,54.79,244,4.22,4.22,0,0,1,59,248.21Zm12.64,4.22a4.22,4.22,0,1,0-4.21-4.22A4.22,4.22,0,0,0,71.64,252.43Zm21.07-4.22A4.21,4.21,0,1,1,88.5,244,4.21,4.21,0,0,1,92.71,248.21Zm12.65,4.22a4.22,4.22,0,1,0-4.22-4.22A4.22,4.22,0,0,0,105.36,252.43Z"/><path class="cls-2" d="M42.14,265.07a4.22,4.22,0,1,1-4.21-4.21A4.21,4.21,0,0,1,42.14,265.07Zm-16.85,0a4.22,4.22,0,1,1-4.22-4.21A4.22,4.22,0,0,1,25.29,265.07Zm29.5,4.22a4.22,4.22,0,1,0-4.22-4.22A4.22,4.22,0,0,0,54.79,269.29Zm21.07-4.22a4.22,4.22,0,1,1-4.22-4.21A4.22,4.22,0,0,1,75.86,265.07Zm12.64,4.22a4.22,4.22,0,1,0-4.21-4.22A4.21,4.21,0,0,0,88.5,269.29Zm21.07-4.22a4.22,4.22,0,1,1-4.21-4.21A4.22,4.22,0,0,1,109.57,265.07Zm12.64,4.22a4.22,4.22,0,1,0-4.21-4.22A4.22,4.22,0,0,0,122.21,269.29Z"/><path class="cls-2" d="M59,281.93a4.22,4.22,0,1,1-4.21-4.22A4.21,4.21,0,0,1,59,281.93Zm-16.86,0a4.22,4.22,0,1,1-4.21-4.22A4.2,4.2,0,0,1,42.14,281.93Zm29.5,4.21a4.22,4.22,0,1,0-4.21-4.21A4.21,4.21,0,0,0,71.64,286.14Zm21.07-4.21a4.21,4.21,0,1,1-4.21-4.22A4.2,4.2,0,0,1,92.71,281.93Zm12.65,4.21a4.22,4.22,0,1,0-4.22-4.21A4.21,4.21,0,0,0,105.36,286.14Zm21.07-4.21a4.22,4.22,0,1,1-4.22-4.22A4.21,4.21,0,0,1,126.43,281.93Zm12.64,4.21a4.22,4.22,0,1,0-4.21-4.21A4.21,4.21,0,0,0,139.07,286.14Z"/><path class="cls-2" d="M25.29,298.79a4.22,4.22,0,1,1-4.22-4.22A4.22,4.22,0,0,1,25.29,298.79Zm-16.86,0a4.22,4.22,0,1,1-4.22-4.22A4.22,4.22,0,0,1,8.43,298.79ZM37.93,303a4.22,4.22,0,1,0-4.22-4.21A4.21,4.21,0,0,0,37.93,303ZM59,298.79a4.22,4.22,0,1,1-4.21-4.22A4.22,4.22,0,0,1,59,298.79ZM71.64,303a4.22,4.22,0,1,0-4.21-4.21A4.22,4.22,0,0,0,71.64,303Zm21.07-4.21a4.21,4.21,0,1,1-4.21-4.22A4.21,4.21,0,0,1,92.71,298.79ZM105.36,303a4.22,4.22,0,1,0-4.22-4.21A4.22,4.22,0,0,0,105.36,303Z"/><path class="cls-2" d="M1084.43,113.21a4.22,4.22,0,1,1-4.22-4.21A4.22,4.22,0,0,1,1084.43,113.21Zm16.86,0a4.22,4.22,0,1,1-4.22-4.21A4.22,4.22,0,0,1,1101.29,113.21Zm12.64,4.22a4.22,4.22,0,1,0-4.22-4.22A4.21,4.21,0,0,0,1113.93,117.43Zm21.07-4.22a4.22,4.22,0,1,1-4.21-4.21A4.22,4.22,0,0,1,1135,113.21Zm12.64,4.22a4.22,4.22,0,1,0-4.21-4.22A4.22,4.22,0,0,0,1147.64,117.43Zm21.07-4.22a4.21,4.21,0,1,1-4.21-4.21A4.21,4.21,0,0,1,1168.71,113.21Zm12.65,4.22a4.22,4.22,0,1,0-4.22-4.22A4.22,4.22,0,0,0,1181.36,117.43Z"/><path class="cls-2" d="M1118.14,130.07a4.22,4.22,0,1,1-4.21-4.21A4.21,4.21,0,0,1,1118.14,130.07Zm-16.85,0a4.22,4.22,0,1,1-4.22-4.21A4.22,4.22,0,0,1,1101.29,130.07Zm29.5,4.22a4.22,4.22,0,1,0-4.22-4.22A4.22,4.22,0,0,0,1130.79,134.29Zm21.07-4.22a4.22,4.22,0,1,1-4.22-4.21A4.22,4.22,0,0,1,1151.86,130.07Zm12.64,4.22a4.22,4.22,0,1,0-4.21-4.22A4.21,4.21,0,0,0,1164.5,134.29Zm21.07-4.22a4.22,4.22,0,1,1-4.21-4.21A4.22,4.22,0,0,1,1185.57,130.07Zm12.64,4.22a4.22,4.22,0,1,0-4.21-4.22A4.22,4.22,0,0,0,1198.21,134.29Z"/><path class="cls-2" d="M1135,146.93a4.22,4.22,0,1,1-4.21-4.22A4.21,4.21,0,0,1,1135,146.93Zm-16.86,0a4.22,4.22,0,1,1-4.21-4.22A4.2,4.2,0,0,1,1118.14,146.93Zm29.5,4.21a4.22,4.22,0,1,0-4.21-4.21A4.21,4.21,0,0,0,1147.64,151.14Zm21.07-4.21a4.21,4.21,0,1,1-4.21-4.22A4.2,4.2,0,0,1,1168.71,146.93Zm12.65,4.21a4.22,4.22,0,1,0-4.22-4.21A4.21,4.21,0,0,0,1181.36,151.14Zm21.07-4.21a4.22,4.22,0,1,1-4.22-4.22A4.21,4.21,0,0,1,1202.43,146.93Zm12.64,4.21a4.22,4.22,0,1,0-4.21-4.21A4.21,4.21,0,0,0,1215.07,151.14Z"/><path class="cls-2" d="M1101.29,163.79a4.22,4.22,0,1,1-4.22-4.22A4.22,4.22,0,0,1,1101.29,163.79Zm-16.86,0a4.22,4.22,0,1,1-4.22-4.22A4.22,4.22,0,0,1,1084.43,163.79Zm29.5,4.21a4.22,4.22,0,1,0-4.22-4.21A4.21,4.21,0,0,0,1113.93,168Zm21.07-4.21a4.22,4.22,0,1,1-4.21-4.22A4.22,4.22,0,0,1,1135,163.79Zm12.64,4.21a4.22,4.22,0,1,0-4.21-4.21A4.22,4.22,0,0,0,1147.64,168Zm21.07-4.21a4.21,4.21,0,1,1-4.21-4.22A4.21,4.21,0,0,1,1168.71,163.79Zm12.65,4.21a4.22,4.22,0,1,0-4.22-4.21A4.22,4.22,0,0,0,1181.36,168Z"/><path class="cls-2" d="M1084.43,368.21a4.22,4.22,0,1,1-4.22-4.21A4.22,4.22,0,0,1,1084.43,368.21Zm16.86,0a4.22,4.22,0,1,1-4.22-4.21A4.22,4.22,0,0,1,1101.29,368.21Zm12.64,4.22a4.22,4.22,0,1,0-4.22-4.22A4.21,4.21,0,0,0,1113.93,372.43Zm21.07-4.22a4.22,4.22,0,1,1-4.21-4.21A4.22,4.22,0,0,1,1135,368.21Zm12.64,4.22a4.22,4.22,0,1,0-4.21-4.22A4.22,4.22,0,0,0,1147.64,372.43Zm21.07-4.22a4.21,4.21,0,1,1-4.21-4.21A4.21,4.21,0,0,1,1168.71,368.21Zm12.65,4.22a4.22,4.22,0,1,0-4.22-4.22A4.22,4.22,0,0,0,1181.36,372.43Z"/><path class="cls-2" d="M1118.14,385.07a4.22,4.22,0,1,1-4.21-4.21A4.21,4.21,0,0,1,1118.14,385.07Zm-16.85,0a4.22,4.22,0,1,1-4.22-4.21A4.22,4.22,0,0,1,1101.29,385.07Zm29.5,4.22a4.22,4.22,0,1,0-4.22-4.22A4.22,4.22,0,0,0,1130.79,389.29Zm21.07-4.22a4.22,4.22,0,1,1-4.22-4.21A4.22,4.22,0,0,1,1151.86,385.07Zm12.64,4.22a4.22,4.22,0,1,0-4.21-4.22A4.21,4.21,0,0,0,1164.5,389.29Zm21.07-4.22a4.22,4.22,0,1,1-4.21-4.21A4.22,4.22,0,0,1,1185.57,385.07Zm12.64,4.22a4.22,4.22,0,1,0-4.21-4.22A4.22,4.22,0,0,0,1198.21,389.29Z"/><path class="cls-2" d="M1135,401.93a4.22,4.22,0,1,1-4.21-4.22A4.21,4.21,0,0,1,1135,401.93Zm-16.86,0a4.22,4.22,0,1,1-4.21-4.22A4.2,4.2,0,0,1,1118.14,401.93Zm29.5,4.21a4.22,4.22,0,1,0-4.21-4.21A4.21,4.21,0,0,0,1147.64,406.14Zm21.07-4.21a4.21,4.21,0,1,1-4.21-4.22A4.2,4.2,0,0,1,1168.71,401.93Zm12.65,4.21a4.22,4.22,0,1,0-4.22-4.21A4.21,4.21,0,0,0,1181.36,406.14Zm21.07-4.21a4.22,4.22,0,1,1-4.22-4.22A4.21,4.21,0,0,1,1202.43,401.93Zm12.64,4.21a4.22,4.22,0,1,0-4.21-4.21A4.21,4.21,0,0,0,1215.07,406.14Z"/><path class="cls-2" d="M1101.29,418.79a4.22,4.22,0,1,1-4.22-4.22A4.22,4.22,0,0,1,1101.29,418.79Zm-16.86,0a4.22,4.22,0,1,1-4.22-4.22A4.22,4.22,0,0,1,1084.43,418.79Zm29.5,4.21a4.22,4.22,0,1,0-4.22-4.21A4.21,4.21,0,0,0,1113.93,423Zm21.07-4.21a4.22,4.22,0,1,1-4.21-4.22A4.22,4.22,0,0,1,1135,418.79Zm12.64,4.21a4.22,4.22,0,1,0-4.21-4.21A4.22,4.22,0,0,0,1147.64,423Zm21.07-4.21a4.21,4.21,0,1,1-4.21-4.22A4.21,4.21,0,0,1,1168.71,418.79Zm12.65,4.21a4.22,4.22,0,1,0-4.22-4.21A4.22,4.22,0,0,0,1181.36,423Z"/><path class="cls-2" d="M1662.43,172.21a4.22,4.22,0,1,1-4.22-4.21A4.22,4.22,0,0,1,1662.43,172.21Zm16.86,0a4.22,4.22,0,1,1-4.22-4.21A4.22,4.22,0,0,1,1679.29,172.21Zm12.64,4.22a4.22,4.22,0,1,0-4.22-4.22A4.21,4.21,0,0,0,1691.93,176.43Zm21.07-4.22a4.22,4.22,0,1,1-4.21-4.21A4.22,4.22,0,0,1,1713,172.21Zm12.64,4.22a4.22,4.22,0,1,0-4.21-4.22A4.22,4.22,0,0,0,1725.64,176.43Zm21.07-4.22a4.21,4.21,0,1,1-4.21-4.21A4.21,4.21,0,0,1,1746.71,172.21Zm12.65,4.22a4.22,4.22,0,1,0-4.22-4.22A4.22,4.22,0,0,0,1759.36,176.43Z"/><path class="cls-2" d="M1696.14,189.07a4.22,4.22,0,1,1-4.21-4.21A4.21,4.21,0,0,1,1696.14,189.07Zm-16.85,0a4.22,4.22,0,1,1-4.22-4.21A4.22,4.22,0,0,1,1679.29,189.07Zm29.5,4.22a4.22,4.22,0,1,0-4.22-4.22A4.22,4.22,0,0,0,1708.79,193.29Zm21.07-4.22a4.22,4.22,0,1,1-4.22-4.21A4.22,4.22,0,0,1,1729.86,189.07Zm12.64,4.22a4.22,4.22,0,1,0-4.21-4.22A4.21,4.21,0,0,0,1742.5,193.29Zm21.07-4.22a4.22,4.22,0,1,1-4.21-4.21A4.22,4.22,0,0,1,1763.57,189.07Zm12.64,4.22a4.22,4.22,0,1,0-4.21-4.22A4.22,4.22,0,0,0,1776.21,193.29Z"/><path class="cls-2" d="M1713,205.93a4.22,4.22,0,1,1-4.21-4.22A4.21,4.21,0,0,1,1713,205.93Zm-16.86,0a4.22,4.22,0,1,1-4.21-4.22A4.2,4.2,0,0,1,1696.14,205.93Zm29.5,4.21a4.22,4.22,0,1,0-4.21-4.21A4.21,4.21,0,0,0,1725.64,210.14Zm21.07-4.21a4.21,4.21,0,1,1-4.21-4.22A4.2,4.2,0,0,1,1746.71,205.93Zm12.65,4.21a4.22,4.22,0,1,0-4.22-4.21A4.21,4.21,0,0,0,1759.36,210.14Zm21.07-4.21a4.22,4.22,0,1,1-4.22-4.22A4.21,4.21,0,0,1,1780.43,205.93Zm12.64,4.21a4.22,4.22,0,1,0-4.21-4.21A4.21,4.21,0,0,0,1793.07,210.14Z"/><path class="cls-2" d="M1679.29,222.79a4.22,4.22,0,1,1-4.22-4.22A4.22,4.22,0,0,1,1679.29,222.79Zm-16.86,0a4.22,4.22,0,1,1-4.22-4.22A4.22,4.22,0,0,1,1662.43,222.79Zm29.5,4.21a4.22,4.22,0,1,0-4.22-4.21A4.21,4.21,0,0,0,1691.93,227Zm21.07-4.21a4.22,4.22,0,1,1-4.21-4.22A4.22,4.22,0,0,1,1713,222.79Zm12.64,4.21a4.22,4.22,0,1,0-4.21-4.21A4.22,4.22,0,0,0,1725.64,227Zm21.07-4.21a4.21,4.21,0,1,1-4.21-4.22A4.21,4.21,0,0,1,1746.71,222.79Zm12.65,4.21a4.22,4.22,0,1,0-4.22-4.21A4.22,4.22,0,0,0,1759.36,227Z"/><path class="cls-2" d="M1624.43,345.21a4.22,4.22,0,1,1-4.22-4.21A4.22,4.22,0,0,1,1624.43,345.21Zm16.86,0a4.22,4.22,0,1,1-4.22-4.21A4.22,4.22,0,0,1,1641.29,345.21Zm12.64,4.22a4.22,4.22,0,1,0-4.22-4.22A4.21,4.21,0,0,0,1653.93,349.43Zm21.07-4.22a4.22,4.22,0,1,1-4.21-4.21A4.22,4.22,0,0,1,1675,345.21Zm12.64,4.22a4.22,4.22,0,1,0-4.21-4.22A4.22,4.22,0,0,0,1687.64,349.43Zm21.07-4.22a4.21,4.21,0,1,1-4.21-4.21A4.21,4.21,0,0,1,1708.71,345.21Zm12.65,4.22a4.22,4.22,0,1,0-4.22-4.22A4.22,4.22,0,0,0,1721.36,349.43Z"/><path class="cls-2" d="M1658.14,362.07a4.22,4.22,0,1,1-4.21-4.21A4.21,4.21,0,0,1,1658.14,362.07Zm-16.85,0a4.22,4.22,0,1,1-4.22-4.21A4.22,4.22,0,0,1,1641.29,362.07Zm29.5,4.22a4.22,4.22,0,1,0-4.22-4.22A4.22,4.22,0,0,0,1670.79,366.29Zm21.07-4.22a4.22,4.22,0,1,1-4.22-4.21A4.22,4.22,0,0,1,1691.86,362.07Zm12.64,4.22a4.22,4.22,0,1,0-4.21-4.22A4.21,4.21,0,0,0,1704.5,366.29Zm21.07-4.22a4.22,4.22,0,1,1-4.21-4.21A4.22,4.22,0,0,1,1725.57,362.07Zm12.64,4.22a4.22,4.22,0,1,0-4.21-4.22A4.22,4.22,0,0,0,1738.21,366.29Z"/><path class="cls-2" d="M1675,378.93a4.22,4.22,0,1,1-4.21-4.22A4.21,4.21,0,0,1,1675,378.93Zm-16.86,0a4.22,4.22,0,1,1-4.21-4.22A4.2,4.2,0,0,1,1658.14,378.93Zm29.5,4.21a4.22,4.22,0,1,0-4.21-4.21A4.21,4.21,0,0,0,1687.64,383.14Zm21.07-4.21a4.21,4.21,0,1,1-4.21-4.22A4.2,4.2,0,0,1,1708.71,378.93Zm12.65,4.21a4.22,4.22,0,1,0-4.22-4.21A4.21,4.21,0,0,0,1721.36,383.14Zm21.07-4.21a4.22,4.22,0,1,1-4.22-4.22A4.21,4.21,0,0,1,1742.43,378.93Zm12.64,4.21a4.22,4.22,0,1,0-4.21-4.21A4.21,4.21,0,0,0,1755.07,383.14Z"/><path class="cls-2" d="M1641.29,395.79a4.22,4.22,0,1,1-4.22-4.22A4.22,4.22,0,0,1,1641.29,395.79Zm-16.86,0a4.22,4.22,0,1,1-4.22-4.22A4.22,4.22,0,0,1,1624.43,395.79Zm29.5,4.21a4.22,4.22,0,1,0-4.22-4.21A4.21,4.21,0,0,0,1653.93,400Zm21.07-4.21a4.22,4.22,0,1,1-4.21-4.22A4.22,4.22,0,0,1,1675,395.79Zm12.64,4.21a4.22,4.22,0,1,0-4.21-4.21A4.22,4.22,0,0,0,1687.64,400Zm21.07-4.21a4.21,4.21,0,1,1-4.21-4.22A4.21,4.21,0,0,1,1708.71,395.79Zm12.65,4.21a4.22,4.22,0,1,0-4.22-4.21A4.22,4.22,0,0,0,1721.36,400Z"/><path class="cls-2" d="M1874.43,247.21a4.22,4.22,0,1,1-4.22-4.21A4.22,4.22,0,0,1,1874.43,247.21Zm16.86,0a4.22,4.22,0,1,1-4.22-4.21A4.22,4.22,0,0,1,1891.29,247.21Zm12.64,4.22a4.22,4.22,0,1,0-4.22-4.22A4.21,4.21,0,0,0,1903.93,251.43Zm21.07-4.22a4.22,4.22,0,1,1-4.21-4.21A4.22,4.22,0,0,1,1925,247.21Zm12.64,4.22a4.22,4.22,0,1,0-4.21-4.22A4.22,4.22,0,0,0,1937.64,251.43Zm21.07-4.22a4.21,4.21,0,1,1-4.21-4.21A4.21,4.21,0,0,1,1958.71,247.21Zm12.65,4.22a4.22,4.22,0,1,0-4.22-4.22A4.22,4.22,0,0,0,1971.36,251.43Z"/><path class="cls-2" d="M1908.14,264.07a4.22,4.22,0,1,1-4.21-4.21A4.21,4.21,0,0,1,1908.14,264.07Zm-16.85,0a4.22,4.22,0,1,1-4.22-4.21A4.22,4.22,0,0,1,1891.29,264.07Zm29.5,4.22a4.22,4.22,0,1,0-4.22-4.22A4.22,4.22,0,0,0,1920.79,268.29Zm21.07-4.22a4.22,4.22,0,1,1-4.22-4.21A4.22,4.22,0,0,1,1941.86,264.07Zm12.64,4.22a4.22,4.22,0,1,0-4.21-4.22A4.21,4.21,0,0,0,1954.5,268.29Zm21.07-4.22a4.22,4.22,0,1,1-4.21-4.21A4.22,4.22,0,0,1,1975.57,264.07Zm12.64,4.22a4.22,4.22,0,1,0-4.21-4.22A4.22,4.22,0,0,0,1988.21,268.29Z"/><path class="cls-2" d="M1925,280.93a4.22,4.22,0,1,1-4.21-4.22A4.21,4.21,0,0,1,1925,280.93Zm-16.86,0a4.22,4.22,0,1,1-4.21-4.22A4.2,4.2,0,0,1,1908.14,280.93Zm29.5,4.21a4.22,4.22,0,1,0-4.21-4.21A4.21,4.21,0,0,0,1937.64,285.14Zm21.07-4.21a4.21,4.21,0,1,1-4.21-4.22A4.2,4.2,0,0,1,1958.71,280.93Zm12.65,4.21a4.22,4.22,0,1,0-4.22-4.21A4.21,4.21,0,0,0,1971.36,285.14Zm21.07-4.21a4.22,4.22,0,1,1-4.22-4.22A4.21,4.21,0,0,1,1992.43,280.93Zm12.64,4.21a4.22,4.22,0,1,0-4.21-4.21A4.21,4.21,0,0,0,2005.07,285.14Z"/><path class="cls-2" d="M1891.29,297.79a4.22,4.22,0,1,1-4.22-4.22A4.22,4.22,0,0,1,1891.29,297.79Zm-16.86,0a4.22,4.22,0,1,1-4.22-4.22A4.22,4.22,0,0,1,1874.43,297.79Zm29.5,4.21a4.22,4.22,0,1,0-4.22-4.21A4.21,4.21,0,0,0,1903.93,302Zm21.07-4.21a4.22,4.22,0,1,1-4.21-4.22A4.22,4.22,0,0,1,1925,297.79Zm12.64,4.21a4.22,4.22,0,1,0-4.21-4.21A4.22,4.22,0,0,0,1937.64,302Zm21.07-4.21a4.21,4.21,0,1,1-4.21-4.22A4.21,4.21,0,0,1,1958.71,297.79Zm12.65,4.21a4.22,4.22,0,1,0-4.22-4.21A4.22,4.22,0,0,0,1971.36,302Z"/></svg>