<svg id="Calque_1" data-name="Calque 1" xmlns="http://www.w3.org/2000/svg" viewBox="0 0 319.86 383.22"><defs><style>.cls-1{fill:#fff;}</style></defs><path class="cls-1" d="M612.4,388.75c5.19,1.19,10.48,2,15.55,3.62,54.45,16.93,73.46,84.49,35.44,126.89-10,11.2-21.56,21.07-32.47,31.62a99.5,99.5,0,0,0-27.57-34.31c.93-1,1.7-1.94,2.54-2.78,7.73-7.78,15.65-15.4,23.18-23.38a33.09,33.09,0,0,0,6-37.47,33.46,33.46,0,0,0-32.39-19.23,31.91,31.91,0,0,0-20.31,8.45c-3.14,2.85-6.09,5.9-9.09,8.9q-43.9,43.94-87.81,87.88c-10.79,10.82-13.66,25-7.9,38.09a33.63,33.63,0,0,0,52.66,12.18c.95-.81,1.83-1.71,2.8-2.49a11.2,11.2,0,0,1,15.41,16.18c-.49.56-1,1.08-1.57,1.61-11.73,11.73-23.42,23.5-35.26,35.12a8.12,8.12,0,0,1-5.08,2.27c-38.32,0-72.54-31.31-76.12-69.35q-3.63-38.56,23.75-65.84Q500.6,460.27,547,413.78c13.48-13.59,29.31-22.13,48.38-24.44a4.83,4.83,0,0,0,1.32-.59Z" transform="translate(-363.42 -388.75)"/><path class="cls-1" d="M417.33,607.32a101.7,101.7,0,0,0,27.9,35.12c-1.16,1.23-2,2.23-3,3.17-8.2,8.21-16.56,16.26-24.57,24.65a33.1,33.1,0,0,0-6.33,37.1,33.59,33.59,0,0,0,32.49,19.69c9.16-.43,16.7-4.41,23.11-10.87,13.8-13.89,27.7-27.69,41.55-41.53q27.13-27.1,54.26-54.23c11.66-11.7,14.36-27.22,7.23-40.72a33.57,33.57,0,0,0-52-9.55c-2.88,2.54-5.8,4.87-9.84,4.66a10.89,10.89,0,0,1-9.8-6.43c-2-4.1-1.39-8,1.24-11.61A24.32,24.32,0,0,1,502.1,554c11.38-11.38,22.84-22.68,34.07-34.2a9.4,9.4,0,0,1,7.88-3c46.09,1.84,88.72,47.82,70.11,102.63A86.69,86.69,0,0,1,593,653.8q-47.15,46.79-94,93.87c-16.56,16.6-36.43,24.85-59.87,24.28-43.7-1.07-78.73-40-75.45-83.59,1.48-19.72,9.06-36.59,22.93-50.61,9.47-9.58,19.07-19,28.62-28.54C415.79,608.61,416.46,608.09,417.33,607.32Z" transform="translate(-363.42 -388.75)"/></svg>