<svg id="Calque_1" data-name="Calque 1" xmlns="http://www.w3.org/2000/svg" viewBox="0 0 76.28 96.18"><defs><style>.cls-1{fill:#fff;}</style></defs><path class="cls-1" d="M9.78,92.9H3.7L2.58,96H.66l5-13.86H7.8l5,13.86H10.9Zm-.52-1.48-2.52-7-2.52,7Zm11.1-6.58a4.45,4.45,0,0,1,3.24,1.22,4.65,4.65,0,0,1,1.24,3.48V96H23V89.8a3.52,3.52,0,0,0-.82-2.5A2.92,2.92,0,0,0,20,86.42a3,3,0,0,0-2.3.9,3.7,3.7,0,0,0-.84,2.62V96H15V85h1.82V86.6a3.61,3.61,0,0,1,1.46-1.3A4.55,4.55,0,0,1,20.36,84.84Zm6.77,5.64a6.14,6.14,0,0,1,.68-2.94,4.94,4.94,0,0,1,1.86-2,5.18,5.18,0,0,1,2.68-.7,4.89,4.89,0,0,1,2.38.6A4.26,4.26,0,0,1,36.41,87V81.2h1.84V96H36.41V93.94a4.35,4.35,0,0,1-1.6,1.62,4.86,4.86,0,0,1-2.48.62,5.08,5.08,0,0,1-2.66-.72,5,5,0,0,1-1.86-2A6.33,6.33,0,0,1,27.13,90.48Zm9.28,0a4.48,4.48,0,0,0-.5-2.16,3.46,3.46,0,0,0-1.36-1.4,3.6,3.6,0,0,0-1.86-.5,3.68,3.68,0,0,0-1.86.48,3.48,3.48,0,0,0-1.34,1.4,4.48,4.48,0,0,0-.5,2.16,4.67,4.67,0,0,0,.5,2.2,3.6,3.6,0,0,0,1.34,1.42,3.84,3.84,0,0,0,3.72,0,3.58,3.58,0,0,0,1.36-1.42A4.61,4.61,0,0,0,36.41,90.5Zm6.74-3.68a3.49,3.49,0,0,1,1.36-1.46,4.24,4.24,0,0,1,2.18-.52v1.88h-.48q-3.06,0-3.06,3.32v6H41.33V85h1.82Zm10.42,9.36a5.62,5.62,0,0,1-2.8-.7,5.11,5.11,0,0,1-2-2,6.21,6.21,0,0,1-.7-3,5.93,5.93,0,0,1,.72-3,5,5,0,0,1,2-2,6,6,0,0,1,5.64,0,4.91,4.91,0,0,1,2,2,6.34,6.34,0,0,1,0,6,5.26,5.26,0,0,1-2,2A5.8,5.8,0,0,1,53.57,96.18Zm0-1.6a3.83,3.83,0,0,0,1.84-.46,3.52,3.52,0,0,0,1.38-1.38,4.35,4.35,0,0,0,.54-2.24,4.55,4.55,0,0,0-.52-2.24,3.36,3.36,0,0,0-1.36-1.36,3.87,3.87,0,0,0-3.66,0,3.21,3.21,0,0,0-1.32,1.36A4.55,4.55,0,0,0,50,90.5a4.84,4.84,0,0,0,.48,2.26,3.38,3.38,0,0,0,1.32,1.38A3.75,3.75,0,0,0,53.57,94.58Zm9-11.32a1.24,1.24,0,1,1,0-2.48,1.12,1.12,0,0,1,.84.36,1.26,1.26,0,0,1,0,1.76A1.12,1.12,0,0,1,62.52,83.26ZM63.4,85V96H61.58V85Zm2.42,5.44a6.14,6.14,0,0,1,.68-2.94,4.94,4.94,0,0,1,1.86-2,5.18,5.18,0,0,1,2.68-.7,4.89,4.89,0,0,1,2.38.6A4.26,4.26,0,0,1,75.1,87V81.2h1.84V96H75.1V93.94a4.35,4.35,0,0,1-1.6,1.62,4.86,4.86,0,0,1-2.48.62,5.08,5.08,0,0,1-2.66-.72,5,5,0,0,1-1.86-2A6.33,6.33,0,0,1,65.82,90.48Zm9.28,0a4.48,4.48,0,0,0-.5-2.16,3.46,3.46,0,0,0-1.36-1.4,3.6,3.6,0,0,0-1.86-.5,3.68,3.68,0,0,0-1.86.48,3.48,3.48,0,0,0-1.34,1.4,4.48,4.48,0,0,0-.5,2.16,4.67,4.67,0,0,0,.5,2.2,3.6,3.6,0,0,0,1.34,1.42,3.84,3.84,0,0,0,3.72,0,3.58,3.58,0,0,0,1.36-1.42A4.61,4.61,0,0,0,75.1,90.5Z" transform="translate(-0.66 0)"/><path class="cls-1" d="M22.4,48.45h4v4a4.56,4.56,0,0,0,9.12,0v-4h8v4a4.56,4.56,0,0,0,9.12,0v-4h4V23.37H22.4Z" transform="translate(-0.66 0)"/><path class="cls-1" d="M57.3.31A2.27,2.27,0,0,0,56.16,0a2.29,2.29,0,0,0-2,1.14l-3.42,6a17.09,17.09,0,0,0-22.51,0L24.81,1.14a2.28,2.28,0,0,0-3.95,2.28l4.24,7.33A17,17,0,0,0,22.4,20H56.6a17,17,0,0,0-2.69-9.2l4.23-7.33a2.32,2.32,0,0,0,.23-1.73A2.28,2.28,0,0,0,57.3.31ZM33,15.39a1.71,1.71,0,0,1-1.58-1.06,1.7,1.7,0,0,1,.37-1.86,1.73,1.73,0,0,1,.87-.47,1.73,1.73,0,0,1,1.76.73,1.69,1.69,0,0,1,.29.95,1.72,1.72,0,0,1-.5,1.21A1.74,1.74,0,0,1,33,15.39Zm13.11,0a1.71,1.71,0,0,1-1.58-1.06,1.7,1.7,0,0,1,.37-1.86,1.73,1.73,0,0,1,.87-.47,1.73,1.73,0,0,1,1.76.73,1.69,1.69,0,0,1,.29.95,1.72,1.72,0,0,1-.5,1.21A1.74,1.74,0,0,1,46.06,15.39Z" transform="translate(-0.66 0)"/><path class="cls-1" d="M64.58,23.37a3.41,3.41,0,0,0-3.42,3.42v11.4a3.42,3.42,0,1,0,6.84,0V26.79a3.41,3.41,0,0,0-3.42-3.42Z" transform="translate(-0.66 0)"/><path class="cls-1" d="M14.42,23.37A3.41,3.41,0,0,0,11,26.79v11.4a3.42,3.42,0,1,0,6.84,0V26.79a3.41,3.41,0,0,0-3.42-3.42Z" transform="translate(-0.66 0)"/></svg>