<svg id="Calque_1" data-name="Calque 1" xmlns="http://www.w3.org/2000/svg" viewBox="0 0 96 101.2"><defs><style>.cls-1{fill:#fff;}</style></defs><path class="cls-1" d="M9.78,92.9H3.7L2.58,96H.66l5-13.86H7.8l5,13.86H10.9Zm-.52-1.48-2.52-7-2.52,7Zm7.58-4.36a4.21,4.21,0,0,1,1.6-1.56,4.77,4.77,0,0,1,2.5-.64,5.06,5.06,0,0,1,2.64.7,5,5,0,0,1,1.88,2,6.14,6.14,0,0,1,.68,2.94,6.33,6.33,0,0,1-.68,3,5,5,0,0,1-4.52,2.74,4.91,4.91,0,0,1-2.48-.62A4.55,4.55,0,0,1,16.84,94v7.22H15V85h1.82Zm7.44,3.42a4.48,4.48,0,0,0-.5-2.16,3.53,3.53,0,0,0-1.36-1.4,3.78,3.78,0,0,0-3.72,0,3.52,3.52,0,0,0-1.36,1.42,4.34,4.34,0,0,0-.5,2.14,4.5,4.5,0,0,0,.5,2.18,3.55,3.55,0,0,0,3.22,1.9,3.55,3.55,0,0,0,3.22-1.9A4.67,4.67,0,0,0,24.28,90.48Zm6.07-3.42A4.29,4.29,0,0,1,32,85.5a4.8,4.8,0,0,1,2.5-.64,5,5,0,0,1,2.64.7,4.92,4.92,0,0,1,1.88,2,6,6,0,0,1,.68,2.94,6.21,6.21,0,0,1-.68,3,5.15,5.15,0,0,1-7,2.12A4.72,4.72,0,0,1,30.35,94v7.22H28.53V85h1.82Zm7.44,3.42a4.36,4.36,0,0,0-.5-2.16,3.4,3.4,0,0,0-1.36-1.4,3.78,3.78,0,0,0-3.72,0,3.59,3.59,0,0,0-1.36,1.42,4.45,4.45,0,0,0-.5,2.14,4.61,4.61,0,0,0,.5,2.18,3.55,3.55,0,0,0,3.22,1.9,3.68,3.68,0,0,0,1.86-.48,3.51,3.51,0,0,0,1.36-1.42A4.55,4.55,0,0,0,37.79,90.48Zm14,5.66a6.13,6.13,0,0,1-2.48-.48,4.21,4.21,0,0,1-1.7-1.36,3.54,3.54,0,0,1-.64-2h1.94a2.62,2.62,0,0,0,.8,1.66,3.59,3.59,0,0,0,4.12,0,2.12,2.12,0,0,0,.76-1.68,1.91,1.91,0,0,0-.44-1.3,2.79,2.79,0,0,0-1.1-.76,17.76,17.76,0,0,0-1.78-.56,16.17,16.17,0,0,1-2.22-.72,3.63,3.63,0,0,1-1.42-1.12,3.38,3.38,0,0,1-.58-2.08,3.57,3.57,0,0,1,.58-2,3.8,3.8,0,0,1,1.62-1.36,5.81,5.81,0,0,1,2.42-.48,5,5,0,0,1,3.2,1,3.61,3.61,0,0,1,1.42,2.6h-2a2.16,2.16,0,0,0-.84-1.4,3,3,0,0,0-2-.62,2.81,2.81,0,0,0-1.86.6,2,2,0,0,0-.72,1.64,1.81,1.81,0,0,0,.42,1.24,2.94,2.94,0,0,0,1.06.74c.43.16,1,.35,1.78.56A15.58,15.58,0,0,1,54.4,89a3.58,3.58,0,0,1,1.44,1.14,3.28,3.28,0,0,1,.6,2.08,3.67,3.67,0,0,1-.54,1.92,3.92,3.92,0,0,1-1.6,1.46A5.33,5.33,0,0,1,51.8,96.14Zm9.54-9.6V93a1.57,1.57,0,0,0,.34,1.14,1.72,1.72,0,0,0,1.18.32H64.2V96H62.56a3.23,3.23,0,0,1-2.28-.7,3,3,0,0,1-.76-2.3V86.54H58.1V85h1.42V82.28h1.82V85H64.2v1.5Zm9.84,9.64a5.65,5.65,0,0,1-2.8-.7,5.18,5.18,0,0,1-2-2,6.33,6.33,0,0,1-.7-3,5.93,5.93,0,0,1,.72-3,5,5,0,0,1,2-2,6,6,0,0,1,5.64,0,4.91,4.91,0,0,1,2,2,6.34,6.34,0,0,1,0,6,5.13,5.13,0,0,1-2,2A5.78,5.78,0,0,1,71.18,96.18Zm0-1.6A3.78,3.78,0,0,0,73,94.12a3.4,3.4,0,0,0,1.38-1.38,4.35,4.35,0,0,0,.54-2.24,4.45,4.45,0,0,0-.52-2.24,3.3,3.3,0,0,0-1.36-1.36,3.67,3.67,0,0,0-1.82-.46,3.75,3.75,0,0,0-1.84.46,3.33,3.33,0,0,0-1.32,1.36,4.66,4.66,0,0,0-.5,2.24,4.84,4.84,0,0,0,.48,2.26,3.52,3.52,0,0,0,1.32,1.38A3.8,3.8,0,0,0,71.18,94.58ZM81,86.82a3.49,3.49,0,0,1,1.36-1.46,4.24,4.24,0,0,1,2.18-.52v1.88h-.48Q81,86.72,81,90v6H79.2V85H81ZM96.66,90.1a10.71,10.71,0,0,1-.06,1.1H87.84a3.55,3.55,0,0,0,1.1,2.54,3.59,3.59,0,0,0,2.46.9,3.38,3.38,0,0,0,2-.54,3,3,0,0,0,1.12-1.48h2a4.82,4.82,0,0,1-1.76,2.58,5.39,5.39,0,0,1-3.28,1,5.54,5.54,0,0,1-2.8-.7,5,5,0,0,1-1.92-2,6.82,6.82,0,0,1,0-6,4.67,4.67,0,0,1,1.9-2,5.62,5.62,0,0,1,2.84-.7,5.54,5.54,0,0,1,2.76.68A4.63,4.63,0,0,1,96,87.42,5.4,5.4,0,0,1,96.66,90.1Zm-1.88-.38a3.37,3.37,0,0,0-.46-1.78,2.89,2.89,0,0,0-1.26-1.14,3.72,3.72,0,0,0-1.74-.4,3.39,3.39,0,0,0-2.36.88,3.6,3.6,0,0,0-1.1,2.44Z" transform="translate(-0.66)"/><path class="cls-1" d="M61.28,13.34c-5.13,0-7.3,2.45-10.87,2.45S44,13.36,39.51,13.36s-9,2.65-11.94,7.18c-4.14,6.38-3.44,18.4,3.26,28.64,2.4,3.66,5.6,7.78,9.8,7.82h.08c3.65,0,4.73-2.39,9.75-2.42h.08c4.94,0,5.94,2.41,9.57,2.41h.08c4.19-.05,7.57-4.6,10-8.25a39.39,39.39,0,0,0,3.69-6.92c-9.69-3.68-11.25-17.42-1.66-22.69-2.93-3.66-7-5.78-10.92-5.78Z" transform="translate(-0.66)"/><path class="cls-1" d="M60.15,0a13.43,13.43,0,0,0-8.7,4.69c-1.9,2.3-3.45,5.71-2.84,9h.24a11.47,11.47,0,0,0,8.53-4.47A12.4,12.4,0,0,0,60.15,0Z" transform="translate(-0.66)"/></svg>