<svg id="Calque_1" data-name="Calque 1" xmlns="http://www.w3.org/2000/svg" viewBox="0 0 68.9 96.18"><defs><style>.cls-1{fill:#fff;}</style></defs><path class="cls-1" d="M63,0H9.14A4.16,4.16,0,0,0,5,4.17V42.4a4.15,4.15,0,0,0,4.14,4.17H29.79a15,15,0,0,1-13.57,8.34V57H54.83V54.91c-10.22,0-12.53-8.34-12.53-8.34H63A4.15,4.15,0,0,0,67.1,42.4V4.17A4.15,4.15,0,0,0,63,0ZM36.05,45.71a2.33,2.33,0,1,1,2.33-2.33A2.32,2.32,0,0,1,36.05,45.71ZM62.66,39.8H9.44V4.43H62.67Z" transform="translate(-1.54)"/><path class="cls-1" d="M31.5,32.92c1.53-.06,2.11-1,4-1s2.36,1,4,1,2.68-1.5,3.68-3a13.8,13.8,0,0,0,1.68-3.43,5.34,5.34,0,0,1-3.24-4.87A5.44,5.44,0,0,1,44.15,17a5.62,5.62,0,0,0-4.41-2.39c-1.87-.19-3.65,1.1-4.61,1.1s-2.42-1.07-4-1a5.91,5.91,0,0,0-5,3c-2.12,3.69-.54,9.15,1.53,12.14C28.71,31.33,29.92,33,31.5,32.92Z" transform="translate(-1.54)"/><path class="cls-1" d="M39.77,8.82a5.43,5.43,0,0,0-3.55,1.83,5.05,5.05,0,0,0-1.28,3.73,4.48,4.48,0,0,0,3.58-1.71A5.28,5.28,0,0,0,39.77,8.82Z" transform="translate(-1.54)"/><path class="cls-1" d="M15.68,82.16V96H13.86V85.68L9.26,96H8L3.36,85.66V96H1.54V82.16h2L8.62,93.6l5.12-11.44Zm2.41,8.32a6,6,0,0,1,.68-2.94,4.94,4.94,0,0,1,1.86-2,5.13,5.13,0,0,1,2.66-.7,4.9,4.9,0,0,1,2.5.62A4.15,4.15,0,0,1,27.37,87V85h1.84V96H27.37V94a4.36,4.36,0,0,1-1.62,1.6,4.88,4.88,0,0,1-2.48.62,5,5,0,0,1-4.5-2.74A6.21,6.21,0,0,1,18.09,90.48Zm9.28,0a4.48,4.48,0,0,0-.5-2.16,3.53,3.53,0,0,0-1.36-1.4,3.6,3.6,0,0,0-1.86-.5,3.68,3.68,0,0,0-1.86.48,3.48,3.48,0,0,0-1.34,1.4,4.36,4.36,0,0,0-.5,2.16,4.55,4.55,0,0,0,.5,2.2,3.6,3.6,0,0,0,1.34,1.42,3.65,3.65,0,0,0,5.08-1.42A4.61,4.61,0,0,0,27.37,90.5Zm4.23,0a6.19,6.19,0,0,1,.68-3,5,5,0,0,1,1.88-2,5.47,5.47,0,0,1,2.78-.7,5.36,5.36,0,0,1,3.32,1A4.6,4.6,0,0,1,42,88.56H40A2.75,2.75,0,0,0,38.94,87a3.29,3.29,0,0,0-2-.58,3.21,3.21,0,0,0-2.52,1.08,4.35,4.35,0,0,0-1,3,4.45,4.45,0,0,0,1,3.06,3.21,3.21,0,0,0,2.52,1.08,3.42,3.42,0,0,0,2-.56,2.81,2.81,0,0,0,1.1-1.6h2a4.85,4.85,0,0,1-1.76,2.7,5.29,5.29,0,0,1-3.3,1,5.47,5.47,0,0,1-2.78-.7,5,5,0,0,1-1.88-2A6.32,6.32,0,0,1,31.6,90.5Zm22.94,5.68a5.65,5.65,0,0,1-2.8-.7,5.18,5.18,0,0,1-2-2,6.33,6.33,0,0,1-.7-3,5.93,5.93,0,0,1,.72-3,5,5,0,0,1,2-2,6,6,0,0,1,5.64,0,4.91,4.91,0,0,1,2,2,6.34,6.34,0,0,1,0,6,5.13,5.13,0,0,1-2,2A5.78,5.78,0,0,1,54.54,96.18Zm0-1.6a3.78,3.78,0,0,0,1.84-.46,3.4,3.4,0,0,0,1.38-1.38,4.35,4.35,0,0,0,.54-2.24,4.45,4.45,0,0,0-.52-2.24,3.3,3.3,0,0,0-1.36-1.36,3.67,3.67,0,0,0-1.82-.46,3.75,3.75,0,0,0-1.84.46,3.33,3.33,0,0,0-1.32,1.36,4.66,4.66,0,0,0-.5,2.24,4.84,4.84,0,0,0,.48,2.26,3.52,3.52,0,0,0,1.32,1.38A3.8,3.8,0,0,0,54.54,94.58Zm11.9,1.6a5.76,5.76,0,0,1-2.26-.42,3.8,3.8,0,0,1-1.58-1.2A3.21,3.21,0,0,1,62,92.78h1.88a1.82,1.82,0,0,0,.76,1.34,2.93,2.93,0,0,0,1.82.52,2.62,2.62,0,0,0,1.64-.46,1.41,1.41,0,0,0,.6-1.16A1.14,1.14,0,0,0,68,92a8.85,8.85,0,0,0-2-.7,15.93,15.93,0,0,1-2-.64,3.74,3.74,0,0,1-1.32-1,2.62,2.62,0,0,1-.54-1.72,2.55,2.55,0,0,1,.5-1.54,3.26,3.26,0,0,1,1.42-1.1,5,5,0,0,1,2.1-.42,4.52,4.52,0,0,1,2.94.92,3.35,3.35,0,0,1,1.2,2.52H68.52a1.9,1.9,0,0,0-.7-1.38,2.54,2.54,0,0,0-1.68-.52,2.58,2.58,0,0,0-1.56.42,1.29,1.29,0,0,0-.58,1.1,1.25,1.25,0,0,0,.34.9,2.89,2.89,0,0,0,.88.56c.36.13.85.29,1.48.46a15.29,15.29,0,0,1,1.92.64,3.26,3.26,0,0,1,1.26.92A2.48,2.48,0,0,1,70.44,93a2.8,2.8,0,0,1-.5,1.62,3.46,3.46,0,0,1-1.42,1.14A5,5,0,0,1,66.44,96.18Z" transform="translate(-1.54)"/></svg>