<svg id="Calque_1" data-name="Calque 1" xmlns="http://www.w3.org/2000/svg" viewBox="0 0 88.9 96.18"><defs><style>.cls-1{fill:#fff;}</style></defs><path class="cls-1" d="M17,49.16l23.36,3.22V30.08H17Z" transform="translate(-0.46)"/><path class="cls-1" d="M17,27.2H40.36V4.62L17,7.84Z" transform="translate(-0.46)"/><path class="cls-1" d="M42.93,52.72,74,57V30.08H42.93Z" transform="translate(-0.46)"/><path class="cls-1" d="M42.93,4.28V27.2H74V0Z" transform="translate(-0.46)"/><path class="cls-1" d="M19.06,82.06,15,96H13L9.74,84.78,6.38,96l-2,0-3.9-14H2.4l3,11.82L8.8,82.06h2L14,93.84,17.1,82.06ZM22,83.26a1.21,1.21,0,0,1-.88-.36,1.26,1.26,0,0,1,0-1.76,1.21,1.21,0,0,1,.88-.36,1.09,1.09,0,0,1,.84.36,1.26,1.26,0,0,1,0,1.76A1.09,1.09,0,0,1,22,83.26ZM22.87,85V96H21.05V85Zm8.44-.2a4.41,4.41,0,0,1,3.24,1.22,4.61,4.61,0,0,1,1.24,3.48V96H34V89.8a3.47,3.47,0,0,0-.82-2.5,2.89,2.89,0,0,0-2.24-.88,3,3,0,0,0-2.3.9,3.7,3.7,0,0,0-.84,2.62V96H26V85h1.82V86.6a3.68,3.68,0,0,1,1.46-1.3A4.61,4.61,0,0,1,31.31,84.84Zm6.78,5.64a6,6,0,0,1,.68-2.94,4.94,4.94,0,0,1,1.86-2,5.18,5.18,0,0,1,2.68-.7,4.92,4.92,0,0,1,2.38.6A4.26,4.26,0,0,1,47.37,87V81.2h1.84V96H47.37V93.94a4.43,4.43,0,0,1-1.6,1.62,4.88,4.88,0,0,1-2.48.62,5.05,5.05,0,0,1-2.66-.72,5,5,0,0,1-1.86-2A6.21,6.21,0,0,1,38.09,90.48Zm9.28,0a4.48,4.48,0,0,0-.5-2.16,3.53,3.53,0,0,0-1.36-1.4,3.6,3.6,0,0,0-1.86-.5,3.68,3.68,0,0,0-1.86.48,3.48,3.48,0,0,0-1.34,1.4,4.36,4.36,0,0,0-.5,2.16,4.55,4.55,0,0,0,.5,2.2,3.6,3.6,0,0,0,1.34,1.42,3.65,3.65,0,0,0,5.08-1.42A4.61,4.61,0,0,0,47.37,90.5Zm9.69,5.68a5.65,5.65,0,0,1-2.8-.7,5.18,5.18,0,0,1-2-2,6.33,6.33,0,0,1-.7-3,5.93,5.93,0,0,1,.72-3,5,5,0,0,1,2-2,6,6,0,0,1,5.64,0,4.91,4.91,0,0,1,2,2,6.34,6.34,0,0,1,0,6,5.13,5.13,0,0,1-2,2A5.78,5.78,0,0,1,57.06,96.18Zm0-1.6a3.78,3.78,0,0,0,1.84-.46,3.4,3.4,0,0,0,1.38-1.38,4.35,4.35,0,0,0,.54-2.24,4.45,4.45,0,0,0-.52-2.24,3.3,3.3,0,0,0-1.36-1.36,3.67,3.67,0,0,0-1.82-.46,3.75,3.75,0,0,0-1.84.46A3.33,3.33,0,0,0,54,88.26a4.66,4.66,0,0,0-.5,2.24,4.84,4.84,0,0,0,.48,2.26,3.52,3.52,0,0,0,1.32,1.38A3.8,3.8,0,0,0,57.06,94.58ZM79.68,85,76.26,96H74.38l-2.64-8.7L69.1,96H67.22L63.78,85h1.86l2.52,9.2L70.88,85h1.86l2.66,9.22L77.88,85Zm5.68,11.14a5.8,5.8,0,0,1-2.26-.42,3.87,3.87,0,0,1-1.58-1.2,3.21,3.21,0,0,1-.64-1.78h1.88a1.85,1.85,0,0,0,.76,1.34,3,3,0,0,0,1.82.52A2.62,2.62,0,0,0,87,94.18a1.41,1.41,0,0,0,.6-1.16A1.12,1.12,0,0,0,86.94,92a8.85,8.85,0,0,0-2-.7,16.49,16.49,0,0,1-2-.64,3.74,3.74,0,0,1-1.32-1,2.81,2.81,0,0,1,0-3.26A3.32,3.32,0,0,1,83,85.28a5,5,0,0,1,2.1-.42,4.52,4.52,0,0,1,2.94.92,3.28,3.28,0,0,1,1.2,2.52H87.44a1.87,1.87,0,0,0-.7-1.38,2.5,2.5,0,0,0-1.68-.52,2.62,2.62,0,0,0-1.56.42,1.29,1.29,0,0,0-.58,1.1,1.25,1.25,0,0,0,.34.9,2.89,2.89,0,0,0,.88.56c.36.13.85.29,1.48.46a14.25,14.25,0,0,1,1.92.64,3.26,3.26,0,0,1,1.26.92A2.43,2.43,0,0,1,89.36,93a2.8,2.8,0,0,1-.5,1.62,3.39,3.39,0,0,1-1.42,1.14A5,5,0,0,1,85.36,96.18Z" transform="translate(-0.46)"/></svg>