<svg id="Calque_1" data-name="Calque 1" xmlns="http://www.w3.org/2000/svg" viewBox="0 0 143.29 59"><defs><style>.cls-1{fill:#eb711c;fill-rule:evenodd;}</style></defs><path class="cls-1" d="M-54.57,4.21a4.22,4.22,0,0,1-4.22,4.22A4.22,4.22,0,0,1-63,4.21,4.22,4.22,0,0,1-58.79,0,4.22,4.22,0,0,1-54.57,4.21Zm16.86,0a4.22,4.22,0,0,1-4.22,4.22,4.21,4.21,0,0,1-4.21-4.22A4.21,4.21,0,0,1-41.93,0,4.22,4.22,0,0,1-37.71,4.21Zm12.64,4.22a4.21,4.21,0,0,0,4.21-4.22A4.21,4.21,0,0,0-25.07,0a4.22,4.22,0,0,0-4.22,4.21A4.22,4.22,0,0,0-25.07,8.43ZM-4,4.21A4.22,4.22,0,0,1-8.21,8.43a4.22,4.22,0,0,1-4.22-4.22A4.22,4.22,0,0,1-8.21,0,4.22,4.22,0,0,1-4,4.21ZM8.64,8.43A4.22,4.22,0,1,0,4.43,4.21,4.22,4.22,0,0,0,8.64,8.43ZM29.71,4.21A4.21,4.21,0,1,1,25.5,0,4.21,4.21,0,0,1,29.71,4.21ZM42.36,8.43a4.22,4.22,0,1,0-4.22-4.22A4.22,4.22,0,0,0,42.36,8.43Z" transform="translate(63)"/><path class="cls-1" d="M-20.86,21.07a4.22,4.22,0,0,1-4.21,4.22,4.22,4.22,0,0,1-4.22-4.22,4.21,4.21,0,0,1,4.22-4.21A4.21,4.21,0,0,1-20.86,21.07Zm-16.86,0a4.21,4.21,0,0,1-4.21,4.22,4.21,4.21,0,0,1-4.21-4.22,4.2,4.2,0,0,1,4.21-4.21A4.2,4.2,0,0,1-37.72,21.07Zm29.5,4.22A4.22,4.22,0,0,0-4,21.07a4.21,4.21,0,0,0-4.22-4.21,4.21,4.21,0,0,0-4.21,4.21A4.22,4.22,0,0,0-8.22,25.29Zm21.08-4.22a4.22,4.22,0,1,1-4.22-4.21A4.22,4.22,0,0,1,12.86,21.07ZM25.5,25.29a4.22,4.22,0,1,0-4.22-4.22A4.21,4.21,0,0,0,25.5,25.29Zm21.07-4.22a4.22,4.22,0,1,1-4.21-4.21A4.22,4.22,0,0,1,46.57,21.07Zm12.64,4.22A4.22,4.22,0,1,0,55,21.07,4.22,4.22,0,0,0,59.21,25.29Z" transform="translate(63)"/><path class="cls-1" d="M-4,37.93a4.21,4.21,0,0,1-4.21,4.21,4.21,4.21,0,0,1-4.22-4.21,4.22,4.22,0,0,1,4.22-4.22A4.22,4.22,0,0,1-4,37.93Zm-16.86,0a4.2,4.2,0,0,1-4.21,4.21,4.21,4.21,0,0,1-4.22-4.21,4.22,4.22,0,0,1,4.22-4.22A4.21,4.21,0,0,1-20.86,37.93Zm29.5,4.21a4.22,4.22,0,1,0-4.21-4.21A4.21,4.21,0,0,0,8.64,42.14Zm21.07-4.21a4.21,4.21,0,1,1-4.21-4.22A4.2,4.2,0,0,1,29.71,37.93Zm12.65,4.21a4.22,4.22,0,1,0-4.22-4.21A4.2,4.2,0,0,0,42.36,42.14Zm21.07-4.21a4.22,4.22,0,1,1-4.22-4.22A4.21,4.21,0,0,1,63.43,37.93Zm12.64,4.21a4.22,4.22,0,1,0-4.21-4.21A4.21,4.21,0,0,0,76.07,42.14Z" transform="translate(63)"/><path class="cls-1" d="M-37.71,54.79A4.22,4.22,0,0,1-41.93,59a4.21,4.21,0,0,1-4.21-4.21,4.21,4.21,0,0,1,4.21-4.22A4.22,4.22,0,0,1-37.71,54.79Zm-16.86,0A4.22,4.22,0,0,1-58.79,59,4.22,4.22,0,0,1-63,54.79a4.22,4.22,0,0,1,4.21-4.22A4.22,4.22,0,0,1-54.57,54.79ZM-25.07,59a4.21,4.21,0,0,0,4.21-4.21,4.21,4.21,0,0,0-4.21-4.22,4.22,4.22,0,0,0-4.22,4.22A4.22,4.22,0,0,0-25.07,59ZM-4,54.79A4.22,4.22,0,0,1-8.21,59a4.22,4.22,0,0,1-4.22-4.21,4.22,4.22,0,0,1,4.22-4.22A4.22,4.22,0,0,1-4,54.79ZM8.64,59a4.22,4.22,0,1,0-4.21-4.21A4.22,4.22,0,0,0,8.64,59Zm21.07-4.21a4.21,4.21,0,1,1-4.21-4.22A4.21,4.21,0,0,1,29.71,54.79ZM42.36,59a4.22,4.22,0,1,0-4.22-4.21A4.22,4.22,0,0,0,42.36,59Z" transform="translate(63)"/></svg>