<svg id="Calque_1" data-name="Calque 1" xmlns="http://www.w3.org/2000/svg" viewBox="0 0 85 35"><defs><style>.cls-1{fill:#eb711c;fill-rule:evenodd;}</style></defs><path class="cls-1" d="M5,2.5A2.5,2.5,0,1,1,2.5,0,2.5,2.5,0,0,1,5,2.5Zm10,0A2.5,2.5,0,1,1,12.5,0,2.5,2.5,0,0,1,15,2.5ZM22.5,5A2.5,2.5,0,1,0,20,2.5,2.5,2.5,0,0,0,22.5,5ZM35,2.5A2.5,2.5,0,1,1,32.5,0,2.5,2.5,0,0,1,35,2.5ZM42.5,5A2.5,2.5,0,1,0,40,2.5,2.5,2.5,0,0,0,42.5,5ZM55,2.5A2.5,2.5,0,1,1,52.5,0,2.5,2.5,0,0,1,55,2.5ZM62.5,5A2.5,2.5,0,1,0,60,2.5,2.5,2.5,0,0,0,62.5,5Z"/><path class="cls-1" d="M15,12.5A2.5,2.5,0,1,1,12.5,10,2.5,2.5,0,0,1,15,12.5Zm10,0A2.5,2.5,0,1,1,22.5,10,2.5,2.5,0,0,1,25,12.5ZM32.5,15A2.5,2.5,0,1,0,30,12.5,2.5,2.5,0,0,0,32.5,15ZM45,12.5A2.5,2.5,0,1,1,42.5,10,2.5,2.5,0,0,1,45,12.5ZM52.5,15A2.5,2.5,0,1,0,50,12.5,2.5,2.5,0,0,0,52.5,15ZM65,12.5A2.5,2.5,0,1,1,62.5,10,2.5,2.5,0,0,1,65,12.5ZM72.5,15A2.5,2.5,0,1,0,70,12.5,2.5,2.5,0,0,0,72.5,15Z"/><path class="cls-1" d="M25,22.5A2.5,2.5,0,1,1,22.5,20,2.5,2.5,0,0,1,25,22.5Zm10,0A2.5,2.5,0,1,1,32.5,20,2.5,2.5,0,0,1,35,22.5ZM42.5,25A2.5,2.5,0,1,0,40,22.5,2.5,2.5,0,0,0,42.5,25ZM55,22.5A2.5,2.5,0,1,1,52.5,20,2.5,2.5,0,0,1,55,22.5ZM62.5,25A2.5,2.5,0,1,0,60,22.5,2.5,2.5,0,0,0,62.5,25ZM75,22.5A2.5,2.5,0,1,1,72.5,20,2.5,2.5,0,0,1,75,22.5ZM82.5,25A2.5,2.5,0,1,0,80,22.5,2.5,2.5,0,0,0,82.5,25Z"/><path class="cls-1" d="M5,32.5A2.5,2.5,0,1,1,2.5,30,2.5,2.5,0,0,1,5,32.5Zm10,0A2.5,2.5,0,1,1,12.5,30,2.5,2.5,0,0,1,15,32.5ZM22.5,35A2.5,2.5,0,1,0,20,32.5,2.5,2.5,0,0,0,22.5,35ZM35,32.5A2.5,2.5,0,1,1,32.5,30,2.5,2.5,0,0,1,35,32.5ZM42.5,35A2.5,2.5,0,1,0,40,32.5,2.5,2.5,0,0,0,42.5,35ZM55,32.5A2.5,2.5,0,1,1,52.5,30,2.5,2.5,0,0,1,55,32.5ZM62.5,35A2.5,2.5,0,1,0,60,32.5,2.5,2.5,0,0,0,62.5,35Z"/></svg>