<svg id="Calque_1" data-name="Calque 1" xmlns="http://www.w3.org/2000/svg" xmlns:xlink="http://www.w3.org/1999/xlink" viewBox="0 0 949.39 386"><defs><style>.cls-1,.cls-10{fill:none;}.cls-2,.cls-3{fill:#eb711c;}.cls-2{fill-rule:evenodd;}.cls-4{fill:#0f0f0f;}.cls-5{fill:#ffb8b8;}.cls-6{fill:#b4c7ed;}.cls-7{fill:#4d5b76;}.cls-8{fill:#ccc;}.cls-9{fill:#3f3d56;}.cls-10{stroke-width:4px;stroke:url(#Dégradé_sans_nom_50);}</style><linearGradient id="Dégradé_sans_nom_50" x1="330.16" y1="27" x2="330.16" y2="2" gradientTransform="matrix(1, 0, 0, -1, 0, 388)" gradientUnits="userSpaceOnUse"><stop offset="0.22" stop-color="#bd24df" stop-opacity="0"/><stop offset="1" stop-color="#eb711c"/></linearGradient></defs><rect class="cls-1" x="0.39" width="949" height="386"/><path class="cls-2" d="M124.58,101.1a3.13,3.13,0,1,1-3.13-3.1A3.12,3.12,0,0,1,124.58,101.1Zm12.52,0A3.13,3.13,0,1,1,134,98,3.12,3.12,0,0,1,137.1,101.1Zm9.39,3.11a3.11,3.11,0,1,0-3.13-3.11A3.12,3.12,0,0,0,146.49,104.21Zm15.64-3.11A3.13,3.13,0,1,1,159,98,3.12,3.12,0,0,1,162.13,101.1Zm9.39,3.11a3.11,3.11,0,1,0-3.13-3.11A3.12,3.12,0,0,0,171.52,104.21Zm15.64-3.11A3.13,3.13,0,1,1,184,98,3.12,3.12,0,0,1,187.16,101.1Zm9.39,3.11a3.11,3.11,0,1,0-3.13-3.11A3.12,3.12,0,0,0,196.55,104.21Z" transform="translate(0.39)"/><path class="cls-2" d="M137.1,113.52a3.13,3.13,0,1,1-3.13-3.1A3.12,3.12,0,0,1,137.1,113.52Zm12.51,0a3.13,3.13,0,1,1-3.12-3.1A3.11,3.11,0,0,1,149.61,113.52Zm9.39,3.1a3.1,3.1,0,1,0-3.13-3.1A3.12,3.12,0,0,0,159,116.62Zm15.65-3.1a3.13,3.13,0,1,1-3.13-3.1A3.12,3.12,0,0,1,174.65,113.52Zm9.38,3.1a3.1,3.1,0,1,0-3.13-3.1A3.12,3.12,0,0,0,184,116.62Zm15.65-3.1a3.13,3.13,0,1,1-3.13-3.1A3.12,3.12,0,0,1,199.68,113.52Zm9.38,3.1a3.1,3.1,0,1,0-3.13-3.1A3.12,3.12,0,0,0,209.06,116.62Z" transform="translate(0.39)"/><path class="cls-2" d="M149.61,125.93a3.13,3.13,0,1,1-3.12-3.1A3.12,3.12,0,0,1,149.61,125.93Zm12.52,0a3.13,3.13,0,1,1-3.13-3.1A3.12,3.12,0,0,1,162.13,125.93Zm9.39,3.11a3.11,3.11,0,1,0-3.13-3.11A3.12,3.12,0,0,0,171.52,129Zm15.64-3.11a3.13,3.13,0,1,1-3.13-3.1A3.12,3.12,0,0,1,187.16,125.93Zm9.39,3.11a3.11,3.11,0,1,0-3.13-3.11A3.12,3.12,0,0,0,196.55,129Zm15.64-3.11a3.13,3.13,0,1,1-3.13-3.1A3.12,3.12,0,0,1,212.19,125.93Zm9.39,3.11a3.11,3.11,0,1,0-3.13-3.11A3.12,3.12,0,0,0,221.58,129Z" transform="translate(0.39)"/><path class="cls-2" d="M137.1,138.35a3.13,3.13,0,1,1-3.13-3.11A3.12,3.12,0,0,1,137.1,138.35Zm-12.52,0a3.13,3.13,0,1,1-3.13-3.11A3.12,3.12,0,0,1,124.58,138.35Zm21.91,3.1a3.11,3.11,0,1,0-3.13-3.1A3.11,3.11,0,0,0,146.49,141.45Zm15.64-3.1a3.13,3.13,0,1,1-3.13-3.11A3.12,3.12,0,0,1,162.13,138.35Zm9.39,3.1a3.11,3.11,0,1,0-3.13-3.1A3.12,3.12,0,0,0,171.52,141.45Zm15.64-3.1a3.13,3.13,0,1,1-3.13-3.11A3.12,3.12,0,0,1,187.16,138.35Zm9.39,3.1a3.11,3.11,0,1,0-3.13-3.1A3.12,3.12,0,0,0,196.55,141.45Z" transform="translate(0.39)"/><path class="cls-2" d="M124.58,288.91a3.13,3.13,0,1,1-3.13-3.11A3.12,3.12,0,0,1,124.58,288.91Zm12.52,0A3.13,3.13,0,1,1,134,285.8,3.12,3.12,0,0,1,137.1,288.91Zm9.39,3.1a3.11,3.11,0,1,0-3.13-3.1A3.11,3.11,0,0,0,146.49,292Zm15.64-3.1A3.13,3.13,0,1,1,159,285.8,3.12,3.12,0,0,1,162.13,288.91Zm9.39,3.1a3.11,3.11,0,1,0-3.13-3.1A3.12,3.12,0,0,0,171.52,292Zm15.64-3.1A3.13,3.13,0,1,1,184,285.8,3.12,3.12,0,0,1,187.16,288.91Zm9.39,3.1a3.11,3.11,0,1,0-3.13-3.1A3.12,3.12,0,0,0,196.55,292Z" transform="translate(0.39)"/><path class="cls-2" d="M149.61,301.32a3.13,3.13,0,1,1-3.12-3.1A3.12,3.12,0,0,1,149.61,301.32Zm-12.51,0a3.13,3.13,0,1,1-3.13-3.1A3.12,3.12,0,0,1,137.1,301.32Zm21.9,3.11a3.11,3.11,0,1,0-3.13-3.11A3.12,3.12,0,0,0,159,304.43Zm15.65-3.11a3.13,3.13,0,1,1-3.13-3.1A3.12,3.12,0,0,1,174.65,301.32Zm9.38,3.11a3.11,3.11,0,1,0-3.13-3.11A3.12,3.12,0,0,0,184,304.43Zm15.65-3.11a3.13,3.13,0,1,1-3.13-3.1A3.12,3.12,0,0,1,199.68,301.32Zm9.38,3.11a3.11,3.11,0,1,0-3.13-3.11A3.12,3.12,0,0,0,209.06,304.43Z" transform="translate(0.39)"/><path class="cls-2" d="M149.61,313.74a3.13,3.13,0,1,1-3.12-3.11A3.11,3.11,0,0,1,149.61,313.74Zm12.52,0a3.13,3.13,0,1,1-3.13-3.11A3.12,3.12,0,0,1,162.13,313.74Zm9.39,3.1a3.11,3.11,0,1,0-3.13-3.1A3.12,3.12,0,0,0,171.52,316.84Zm15.64-3.1a3.13,3.13,0,1,1-3.13-3.11A3.12,3.12,0,0,1,187.16,313.74Zm9.39,3.1a3.11,3.11,0,1,0-3.13-3.1A3.12,3.12,0,0,0,196.55,316.84Zm15.64-3.1a3.13,3.13,0,1,1-3.13-3.11A3.12,3.12,0,0,1,212.19,313.74Zm9.39,3.1a3.11,3.11,0,1,0-3.13-3.1A3.12,3.12,0,0,0,221.58,316.84Z" transform="translate(0.39)"/><path class="cls-2" d="M137.1,326.15a3.13,3.13,0,1,1-3.13-3.1A3.12,3.12,0,0,1,137.1,326.15Zm-12.52,0a3.13,3.13,0,1,1-3.13-3.1A3.12,3.12,0,0,1,124.58,326.15Zm21.91,3.11a3.11,3.11,0,1,0-3.13-3.11A3.12,3.12,0,0,0,146.49,329.26Zm15.64-3.11a3.13,3.13,0,1,1-3.13-3.1A3.12,3.12,0,0,1,162.13,326.15Zm9.39,3.11a3.11,3.11,0,1,0-3.13-3.11A3.12,3.12,0,0,0,171.52,329.26Zm15.64-3.11a3.13,3.13,0,1,1-3.13-3.1A3.12,3.12,0,0,1,187.16,326.15Zm9.39,3.11a3.11,3.11,0,1,0-3.13-3.11A3.12,3.12,0,0,0,196.55,329.26Z" transform="translate(0.39)"/><path class="cls-2" d="M602.38,188.74a3.13,3.13,0,1,1-3.13-3.1A3.12,3.12,0,0,1,602.38,188.74Zm-12.52,0a3.13,3.13,0,1,1-3.13-3.1A3.12,3.12,0,0,1,589.86,188.74Zm21.9,3.11a3.11,3.11,0,1,0-3.12-3.11A3.12,3.12,0,0,0,611.76,191.85Zm15.65-3.11a3.13,3.13,0,1,1-3.13-3.1A3.12,3.12,0,0,1,627.41,188.74Zm9.39,3.11a3.11,3.11,0,1,0-3.13-3.11A3.12,3.12,0,0,0,636.8,191.85Zm15.64-3.11a3.13,3.13,0,1,1-3.13-3.1A3.12,3.12,0,0,1,652.44,188.74Zm9.39,3.11a3.11,3.11,0,1,0-3.13-3.11A3.12,3.12,0,0,0,661.83,191.85Z" transform="translate(0.39)"/><path class="cls-2" d="M602.38,201.16a3.13,3.13,0,1,1-3.13-3.1A3.12,3.12,0,0,1,602.38,201.16Zm12.51,0a3.13,3.13,0,1,1-3.13-3.1A3.12,3.12,0,0,1,614.89,201.16Zm9.39,3.1a3.1,3.1,0,1,0-3.13-3.1A3.12,3.12,0,0,0,624.28,204.26Zm15.64-3.1a3.13,3.13,0,1,1-3.12-3.1A3.11,3.11,0,0,1,639.92,201.16Zm9.39,3.1a3.1,3.1,0,1,0-3.13-3.1A3.12,3.12,0,0,0,649.31,204.26Zm15.65-3.1a3.13,3.13,0,1,1-3.13-3.1A3.12,3.12,0,0,1,665,201.16Zm9.38,3.1a3.1,3.1,0,1,0-3.12-3.1A3.12,3.12,0,0,0,674.34,204.26Z" transform="translate(0.39)"/><path class="cls-2" d="M627.41,213.57a3.13,3.13,0,1,1-3.13-3.1A3.12,3.12,0,0,1,627.41,213.57Zm-12.52,0a3.13,3.13,0,1,1-3.13-3.1A3.12,3.12,0,0,1,614.89,213.57Zm21.91,3.11a3.11,3.11,0,1,0-3.13-3.11A3.12,3.12,0,0,0,636.8,216.68Zm15.64-3.11a3.13,3.13,0,1,1-3.13-3.1A3.12,3.12,0,0,1,652.44,213.57Zm9.39,3.11a3.11,3.11,0,1,0-3.13-3.11A3.12,3.12,0,0,0,661.83,216.68Zm15.64-3.11a3.13,3.13,0,1,1-3.13-3.1A3.12,3.12,0,0,1,677.47,213.57Zm9.39,3.11a3.11,3.11,0,1,0-3.13-3.11A3.12,3.12,0,0,0,686.86,216.68Z" transform="translate(0.39)"/><path class="cls-2" d="M602.38,226a3.13,3.13,0,1,1-3.13-3.1A3.12,3.12,0,0,1,602.38,226Zm-12.52,0a3.13,3.13,0,1,1-3.13-3.1A3.12,3.12,0,0,1,589.86,226Zm21.9,3.1a3.1,3.1,0,1,0-3.12-3.1A3.12,3.12,0,0,0,611.76,229.09Zm15.65-3.1a3.13,3.13,0,1,1-3.13-3.1A3.12,3.12,0,0,1,627.41,226Zm9.39,3.1a3.1,3.1,0,1,0-3.13-3.1A3.11,3.11,0,0,0,636.8,229.09Zm15.64-3.1a3.13,3.13,0,1,1-3.13-3.1A3.12,3.12,0,0,1,652.44,226Zm9.39,3.1a3.1,3.1,0,1,0-3.13-3.1A3.12,3.12,0,0,0,661.83,229.09Z" transform="translate(0.39)"/><path class="cls-2" d="M860.46,188.74a3.13,3.13,0,1,1-3.13-3.1A3.12,3.12,0,0,1,860.46,188.74Zm-12.52,0a3.13,3.13,0,1,1-3.13-3.1A3.12,3.12,0,0,1,847.94,188.74Zm21.91,3.11a3.11,3.11,0,1,0-3.13-3.11A3.12,3.12,0,0,0,869.85,191.85Zm15.64-3.11a3.13,3.13,0,1,1-3.13-3.1A3.12,3.12,0,0,1,885.49,188.74Zm9.39,3.11a3.11,3.11,0,1,0-3.13-3.11A3.12,3.12,0,0,0,894.88,191.85Zm15.64-3.11a3.13,3.13,0,1,1-3.13-3.1A3.12,3.12,0,0,1,910.52,188.74Zm9.39,3.11a3.11,3.11,0,1,0-3.13-3.11A3.12,3.12,0,0,0,919.91,191.85Z" transform="translate(0.39)"/><path class="cls-2" d="M860.46,201.16a3.13,3.13,0,1,1-3.13-3.1A3.12,3.12,0,0,1,860.46,201.16Zm12.51,0a3.13,3.13,0,1,1-3.12-3.1A3.11,3.11,0,0,1,873,201.16Zm9.39,3.1a3.1,3.1,0,1,0-3.13-3.1A3.12,3.12,0,0,0,882.36,204.26Zm15.65-3.1a3.13,3.13,0,1,1-3.13-3.1A3.12,3.12,0,0,1,898,201.16Zm9.38,3.1a3.1,3.1,0,1,0-3.13-3.1A3.12,3.12,0,0,0,907.39,204.26Zm15.65-3.1a3.13,3.13,0,1,1-3.13-3.1A3.12,3.12,0,0,1,923,201.16Zm9.38,3.1a3.1,3.1,0,1,0-3.12-3.1A3.12,3.12,0,0,0,932.42,204.26Z" transform="translate(0.39)"/><path class="cls-2" d="M885.49,213.57a3.13,3.13,0,1,1-3.13-3.1A3.12,3.12,0,0,1,885.49,213.57Zm-12.52,0a3.13,3.13,0,1,1-3.12-3.1A3.12,3.12,0,0,1,873,213.57Zm21.91,3.11a3.11,3.11,0,1,0-3.13-3.11A3.12,3.12,0,0,0,894.88,216.68Zm15.64-3.11a3.13,3.13,0,1,1-3.13-3.1A3.12,3.12,0,0,1,910.52,213.57Zm9.39,3.11a3.11,3.11,0,1,0-3.13-3.11A3.12,3.12,0,0,0,919.91,216.68Zm15.64-3.11a3.13,3.13,0,1,1-3.13-3.1A3.12,3.12,0,0,1,935.55,213.57Zm9.39,3.11a3.11,3.11,0,1,0-3.13-3.11A3.12,3.12,0,0,0,944.94,216.68Z" transform="translate(0.39)"/><path class="cls-2" d="M860.46,226a3.13,3.13,0,1,1-3.13-3.1A3.12,3.12,0,0,1,860.46,226Zm-12.52,0a3.13,3.13,0,1,1-3.13-3.1A3.12,3.12,0,0,1,847.94,226Zm21.91,3.1a3.1,3.1,0,1,0-3.13-3.1A3.11,3.11,0,0,0,869.85,229.09Zm15.64-3.1a3.13,3.13,0,1,1-3.13-3.1A3.12,3.12,0,0,1,885.49,226Zm9.39,3.1a3.1,3.1,0,1,0-3.13-3.1A3.12,3.12,0,0,0,894.88,229.09Zm15.64-3.1a3.13,3.13,0,1,1-3.13-3.1A3.12,3.12,0,0,1,910.52,226Zm9.39,3.1a3.1,3.1,0,1,0-3.13-3.1A3.12,3.12,0,0,0,919.91,229.09Z" transform="translate(0.39)"/><path class="cls-2" d="M384.2,101.1a3.13,3.13,0,1,1-3.13-3.1A3.12,3.12,0,0,1,384.2,101.1Zm12.52,0a3.13,3.13,0,1,1-3.13-3.1A3.12,3.12,0,0,1,396.72,101.1Zm9.39,3.11A3.11,3.11,0,1,0,403,101.1,3.12,3.12,0,0,0,406.11,104.21Zm15.64-3.11a3.13,3.13,0,1,1-3.13-3.1A3.12,3.12,0,0,1,421.75,101.1Zm9.39,3.11A3.11,3.11,0,1,0,428,101.1,3.12,3.12,0,0,0,431.14,104.21Zm15.64-3.11a3.13,3.13,0,1,1-3.13-3.1A3.12,3.12,0,0,1,446.78,101.1Zm9.39,3.11A3.11,3.11,0,1,0,453,101.1,3.12,3.12,0,0,0,456.17,104.21Z" transform="translate(0.39)"/><path class="cls-2" d="M396.72,113.52a3.13,3.13,0,1,1-3.13-3.1A3.12,3.12,0,0,1,396.72,113.52Zm12.51,0a3.13,3.13,0,1,1-3.12-3.1A3.11,3.11,0,0,1,409.23,113.52Zm9.39,3.1a3.1,3.1,0,1,0-3.13-3.1A3.12,3.12,0,0,0,418.62,116.62Zm15.65-3.1a3.13,3.13,0,1,1-3.13-3.1A3.12,3.12,0,0,1,434.27,113.52Zm9.38,3.1a3.1,3.1,0,1,0-3.13-3.1A3.12,3.12,0,0,0,443.65,116.62Zm15.65-3.1a3.13,3.13,0,1,1-3.13-3.1A3.12,3.12,0,0,1,459.3,113.52Zm9.39,3.1a3.1,3.1,0,1,0-3.13-3.1A3.12,3.12,0,0,0,468.69,116.62Z" transform="translate(0.39)"/><path class="cls-2" d="M409.23,125.93a3.13,3.13,0,1,1-3.12-3.1A3.12,3.12,0,0,1,409.23,125.93Zm12.52,0a3.13,3.13,0,1,1-3.13-3.1A3.12,3.12,0,0,1,421.75,125.93Zm9.39,3.11a3.11,3.11,0,1,0-3.13-3.11A3.12,3.12,0,0,0,431.14,129Zm15.64-3.11a3.13,3.13,0,1,1-3.13-3.1A3.12,3.12,0,0,1,446.78,125.93Zm9.39,3.11a3.11,3.11,0,1,0-3.13-3.11A3.12,3.12,0,0,0,456.17,129Zm15.65-3.11a3.13,3.13,0,1,1-3.13-3.1A3.12,3.12,0,0,1,471.82,125.93ZM481.2,129a3.11,3.11,0,1,0-3.13-3.11A3.12,3.12,0,0,0,481.2,129Z" transform="translate(0.39)"/><path class="cls-2" d="M396.72,138.35a3.13,3.13,0,1,1-3.13-3.11A3.12,3.12,0,0,1,396.72,138.35Zm-12.52,0a3.13,3.13,0,1,1-3.13-3.11A3.12,3.12,0,0,1,384.2,138.35Zm21.91,3.1a3.11,3.11,0,1,0-3.13-3.1A3.11,3.11,0,0,0,406.11,141.45Zm15.64-3.1a3.13,3.13,0,1,1-3.13-3.11A3.12,3.12,0,0,1,421.75,138.35Zm9.39,3.1a3.11,3.11,0,1,0-3.13-3.1A3.12,3.12,0,0,0,431.14,141.45Zm15.64-3.1a3.13,3.13,0,1,1-3.13-3.11A3.12,3.12,0,0,1,446.78,138.35Zm9.39,3.1a3.11,3.11,0,1,0-3.13-3.1A3.12,3.12,0,0,0,456.17,141.45Z" transform="translate(0.39)"/><path class="cls-2" d="M642.28,101.1a3.13,3.13,0,1,1-3.12-3.1A3.12,3.12,0,0,1,642.28,101.1Zm12.52,0a3.13,3.13,0,1,1-3.13-3.1A3.12,3.12,0,0,1,654.8,101.1Zm9.39,3.11a3.11,3.11,0,1,0-3.13-3.11A3.12,3.12,0,0,0,664.19,104.21Zm15.64-3.11A3.13,3.13,0,1,1,676.7,98,3.12,3.12,0,0,1,679.83,101.1Zm9.39,3.11a3.11,3.11,0,1,0-3.13-3.11A3.12,3.12,0,0,0,689.22,104.21Zm15.64-3.11a3.13,3.13,0,1,1-3.13-3.1A3.12,3.12,0,0,1,704.86,101.1Zm9.39,3.11a3.11,3.11,0,1,0-3.13-3.11A3.12,3.12,0,0,0,714.25,104.21Z" transform="translate(0.39)"/><path class="cls-2" d="M654.8,113.52a3.13,3.13,0,1,1-3.13-3.1A3.12,3.12,0,0,1,654.8,113.52Zm12.52,0a3.13,3.13,0,1,1-3.13-3.1A3.12,3.12,0,0,1,667.32,113.52Zm9.38,3.1a3.1,3.1,0,1,0-3.13-3.1A3.12,3.12,0,0,0,676.7,116.62Zm15.65-3.1a3.13,3.13,0,1,1-3.13-3.1A3.12,3.12,0,0,1,692.35,113.52Zm9.38,3.1a3.1,3.1,0,1,0-3.12-3.1A3.12,3.12,0,0,0,701.73,116.62Zm15.65-3.1a3.13,3.13,0,1,1-3.13-3.1A3.12,3.12,0,0,1,717.38,113.52Zm9.39,3.1a3.1,3.1,0,1,0-3.13-3.1A3.12,3.12,0,0,0,726.77,116.62Z" transform="translate(0.39)"/><path class="cls-2" d="M667.32,125.93a3.13,3.13,0,1,1-3.13-3.1A3.12,3.12,0,0,1,667.32,125.93Zm12.51,0a3.13,3.13,0,1,1-3.13-3.1A3.12,3.12,0,0,1,679.83,125.93Zm9.39,3.11a3.11,3.11,0,1,0-3.13-3.11A3.12,3.12,0,0,0,689.22,129Zm15.64-3.11a3.13,3.13,0,1,1-3.13-3.1A3.12,3.12,0,0,1,704.86,125.93Zm9.39,3.11a3.11,3.11,0,1,0-3.13-3.11A3.12,3.12,0,0,0,714.25,129Zm15.65-3.11a3.13,3.13,0,1,1-3.13-3.1A3.12,3.12,0,0,1,729.9,125.93Zm9.38,3.11a3.11,3.11,0,1,0-3.13-3.11A3.12,3.12,0,0,0,739.28,129Z" transform="translate(0.39)"/><path class="cls-2" d="M654.8,138.35a3.13,3.13,0,1,1-3.13-3.11A3.12,3.12,0,0,1,654.8,138.35Zm-12.52,0a3.13,3.13,0,1,1-3.12-3.11A3.11,3.11,0,0,1,642.28,138.35Zm21.91,3.1a3.11,3.11,0,1,0-3.13-3.1A3.12,3.12,0,0,0,664.19,141.45Zm15.64-3.1a3.13,3.13,0,1,1-3.13-3.11A3.12,3.12,0,0,1,679.83,138.35Zm9.39,3.1a3.11,3.11,0,1,0-3.13-3.1A3.12,3.12,0,0,0,689.22,141.45Zm15.64-3.1a3.13,3.13,0,1,1-3.13-3.11A3.12,3.12,0,0,1,704.86,138.35Zm9.39,3.1a3.11,3.11,0,1,0-3.13-3.1A3.12,3.12,0,0,0,714.25,141.45Z" transform="translate(0.39)"/><path class="cls-2" d="M25.73,188.74a3.13,3.13,0,1,1-3.13-3.1A3.12,3.12,0,0,1,25.73,188.74Zm-12.52,0a3.13,3.13,0,1,1-3.13-3.1A3.12,3.12,0,0,1,13.21,188.74Zm21.9,3.11A3.11,3.11,0,1,0,32,188.74,3.12,3.12,0,0,0,35.11,191.85Zm15.65-3.11a3.13,3.13,0,1,1-3.13-3.1A3.12,3.12,0,0,1,50.76,188.74Zm9.39,3.11A3.11,3.11,0,1,0,57,188.74,3.12,3.12,0,0,0,60.15,191.85Zm15.64-3.11a3.13,3.13,0,1,1-3.13-3.1A3.12,3.12,0,0,1,75.79,188.74Zm9.39,3.11a3.11,3.11,0,1,0-3.13-3.11A3.12,3.12,0,0,0,85.18,191.85Z" transform="translate(0.39)"/><path class="cls-2" d="M25.73,201.16a3.13,3.13,0,1,1-3.13-3.1A3.12,3.12,0,0,1,25.73,201.16Zm12.51,0a3.13,3.13,0,1,1-3.13-3.1A3.12,3.12,0,0,1,38.24,201.16Zm9.39,3.1a3.1,3.1,0,1,0-3.13-3.1A3.12,3.12,0,0,0,47.63,204.26Zm15.64-3.1a3.13,3.13,0,1,1-3.12-3.1A3.11,3.11,0,0,1,63.27,201.16Zm9.39,3.1a3.1,3.1,0,1,0-3.13-3.1A3.12,3.12,0,0,0,72.66,204.26Zm15.65-3.1a3.13,3.13,0,1,1-3.13-3.1A3.12,3.12,0,0,1,88.31,201.16Zm9.38,3.1a3.1,3.1,0,1,0-3.13-3.1A3.12,3.12,0,0,0,97.69,204.26Z" transform="translate(0.39)"/><path class="cls-2" d="M50.76,213.57a3.13,3.13,0,1,1-3.13-3.1A3.12,3.12,0,0,1,50.76,213.57Zm-12.52,0a3.13,3.13,0,1,1-3.13-3.1A3.12,3.12,0,0,1,38.24,213.57Zm21.91,3.11A3.11,3.11,0,1,0,57,213.57,3.12,3.12,0,0,0,60.15,216.68Zm15.64-3.11a3.13,3.13,0,1,1-3.13-3.1A3.12,3.12,0,0,1,75.79,213.57Zm9.39,3.11a3.11,3.11,0,1,0-3.13-3.11A3.12,3.12,0,0,0,85.18,216.68Zm15.64-3.11a3.13,3.13,0,1,1-3.13-3.1A3.12,3.12,0,0,1,100.82,213.57Zm9.39,3.11a3.11,3.11,0,1,0-3.13-3.11A3.12,3.12,0,0,0,110.21,216.68Z" transform="translate(0.39)"/><path class="cls-2" d="M25.73,226a3.13,3.13,0,1,1-3.13-3.1A3.12,3.12,0,0,1,25.73,226Zm-12.52,0a3.13,3.13,0,1,1-3.13-3.1A3.12,3.12,0,0,1,13.21,226Zm21.9,3.1A3.1,3.1,0,1,0,32,226,3.12,3.12,0,0,0,35.11,229.09ZM50.76,226a3.13,3.13,0,1,1-3.13-3.1A3.12,3.12,0,0,1,50.76,226Zm9.39,3.1A3.1,3.1,0,1,0,57,226,3.11,3.11,0,0,0,60.15,229.09ZM75.79,226a3.13,3.13,0,1,1-3.13-3.1A3.12,3.12,0,0,1,75.79,226Zm9.39,3.1a3.1,3.1,0,1,0-3.13-3.1A3.12,3.12,0,0,0,85.18,229.09Z" transform="translate(0.39)"/><path class="cls-2" d="M314.05,188.74a3.13,3.13,0,1,1-3.13-3.1A3.12,3.12,0,0,1,314.05,188.74Zm-12.51,0a3.13,3.13,0,1,1-3.13-3.1A3.12,3.12,0,0,1,301.54,188.74Zm21.9,3.11a3.11,3.11,0,1,0-3.13-3.11A3.12,3.12,0,0,0,323.44,191.85Zm15.64-3.11a3.13,3.13,0,1,1-3.13-3.1A3.12,3.12,0,0,1,339.08,188.74Zm9.39,3.11a3.11,3.11,0,1,0-3.13-3.11A3.12,3.12,0,0,0,348.47,191.85Zm15.65-3.11a3.13,3.13,0,1,1-3.13-3.1A3.12,3.12,0,0,1,364.12,188.74Zm9.38,3.11a3.11,3.11,0,1,0-3.13-3.11A3.12,3.12,0,0,0,373.5,191.85Z" transform="translate(0.39)"/><path class="cls-2" d="M314.05,201.16a3.13,3.13,0,1,1-3.13-3.1A3.12,3.12,0,0,1,314.05,201.16Zm12.52,0a3.13,3.13,0,1,1-3.13-3.1A3.12,3.12,0,0,1,326.57,201.16Zm9.38,3.1a3.1,3.1,0,1,0-3.12-3.1A3.12,3.12,0,0,0,336,204.26Zm15.65-3.1a3.13,3.13,0,1,1-3.13-3.1A3.12,3.12,0,0,1,351.6,201.16Zm9.39,3.1a3.1,3.1,0,1,0-3.13-3.1A3.12,3.12,0,0,0,361,204.26Zm15.64-3.1a3.13,3.13,0,1,1-3.13-3.1A3.12,3.12,0,0,1,376.63,201.16Zm9.39,3.1a3.1,3.1,0,1,0-3.13-3.1A3.12,3.12,0,0,0,386,204.26Z" transform="translate(0.39)"/><path class="cls-2" d="M339.08,213.57a3.13,3.13,0,1,1-3.13-3.1A3.12,3.12,0,0,1,339.08,213.57Zm-12.51,0a3.13,3.13,0,1,1-3.13-3.1A3.12,3.12,0,0,1,326.57,213.57Zm21.9,3.11a3.11,3.11,0,1,0-3.13-3.11A3.12,3.12,0,0,0,348.47,216.68Zm15.65-3.11a3.13,3.13,0,1,1-3.13-3.1A3.12,3.12,0,0,1,364.12,213.57Zm9.38,3.11a3.11,3.11,0,1,0-3.13-3.11A3.12,3.12,0,0,0,373.5,216.68Zm15.65-3.11a3.13,3.13,0,1,1-3.13-3.1A3.12,3.12,0,0,1,389.15,213.57Zm9.39,3.11a3.11,3.11,0,1,0-3.13-3.11A3.12,3.12,0,0,0,398.54,216.68Z" transform="translate(0.39)"/><path class="cls-2" d="M314.05,226a3.13,3.13,0,1,1-3.13-3.1A3.12,3.12,0,0,1,314.05,226Zm-12.51,0a3.13,3.13,0,1,1-3.13-3.1A3.12,3.12,0,0,1,301.54,226Zm21.9,3.1a3.1,3.1,0,1,0-3.13-3.1A3.12,3.12,0,0,0,323.44,229.09Zm15.64-3.1a3.13,3.13,0,1,1-3.13-3.1A3.12,3.12,0,0,1,339.08,226Zm9.39,3.1a3.1,3.1,0,1,0-3.13-3.1A3.12,3.12,0,0,0,348.47,229.09Zm15.65-3.1a3.13,3.13,0,1,1-3.13-3.1A3.12,3.12,0,0,1,364.12,226Zm9.38,3.1a3.1,3.1,0,1,0-3.13-3.1A3.12,3.12,0,0,0,373.5,229.09Z" transform="translate(0.39)"/><path class="cls-2" d="M470.37,288.91a3.13,3.13,0,1,1-3.13-3.11A3.12,3.12,0,0,1,470.37,288.91Zm12.52,0a3.13,3.13,0,1,1-3.13-3.11A3.12,3.12,0,0,1,482.89,288.91Zm9.38,3.1a3.11,3.11,0,1,0-3.13-3.1A3.12,3.12,0,0,0,492.27,292Zm15.65-3.1a3.13,3.13,0,1,1-3.13-3.11A3.12,3.12,0,0,1,507.92,288.91Zm9.38,3.1a3.11,3.11,0,1,0-3.12-3.1A3.12,3.12,0,0,0,517.3,292Zm15.65-3.1a3.13,3.13,0,1,1-3.13-3.11A3.12,3.12,0,0,1,533,288.91Zm9.39,3.1a3.11,3.11,0,1,0-3.13-3.1A3.12,3.12,0,0,0,542.34,292Z" transform="translate(0.39)"/><path class="cls-2" d="M495.4,301.32a3.13,3.13,0,1,1-3.13-3.1A3.12,3.12,0,0,1,495.4,301.32Zm-12.51,0a3.13,3.13,0,1,1-3.13-3.1A3.12,3.12,0,0,1,482.89,301.32Zm21.9,3.11a3.11,3.11,0,1,0-3.13-3.11A3.12,3.12,0,0,0,504.79,304.43Zm15.64-3.11a3.13,3.13,0,1,1-3.13-3.1A3.12,3.12,0,0,1,520.43,301.32Zm9.39,3.11a3.11,3.11,0,1,0-3.13-3.11A3.12,3.12,0,0,0,529.82,304.43Zm15.65-3.11a3.13,3.13,0,1,1-3.13-3.1A3.12,3.12,0,0,1,545.47,301.32Zm9.38,3.11a3.11,3.11,0,1,0-3.13-3.11A3.12,3.12,0,0,0,554.85,304.43Z" transform="translate(0.39)"/><path class="cls-2" d="M495.4,313.74a3.13,3.13,0,1,1-3.13-3.11A3.12,3.12,0,0,1,495.4,313.74Zm12.52,0a3.13,3.13,0,1,1-3.13-3.11A3.12,3.12,0,0,1,507.92,313.74Zm9.38,3.1a3.11,3.11,0,1,0-3.12-3.1A3.12,3.12,0,0,0,517.3,316.84Zm15.65-3.1a3.13,3.13,0,1,1-3.13-3.11A3.12,3.12,0,0,1,533,313.74Zm9.39,3.1a3.11,3.11,0,1,0-3.13-3.1A3.12,3.12,0,0,0,542.34,316.84Zm15.64-3.1a3.13,3.13,0,1,1-3.13-3.11A3.12,3.12,0,0,1,558,313.74Zm9.39,3.1a3.11,3.11,0,1,0-3.13-3.1A3.12,3.12,0,0,0,567.37,316.84Z" transform="translate(0.39)"/><path class="cls-2" d="M482.89,326.15a3.13,3.13,0,1,1-3.13-3.1A3.12,3.12,0,0,1,482.89,326.15Zm-12.52,0a3.13,3.13,0,1,1-3.13-3.1A3.12,3.12,0,0,1,470.37,326.15Zm21.9,3.11a3.11,3.11,0,1,0-3.13-3.11A3.12,3.12,0,0,0,492.27,329.26Zm15.65-3.11a3.13,3.13,0,1,1-3.13-3.1A3.12,3.12,0,0,1,507.92,326.15Zm9.38,3.11a3.11,3.11,0,1,0-3.12-3.11A3.12,3.12,0,0,0,517.3,329.26ZM533,326.15a3.13,3.13,0,1,1-3.13-3.1A3.12,3.12,0,0,1,533,326.15Zm9.39,3.11a3.11,3.11,0,1,0-3.13-3.11A3.12,3.12,0,0,0,542.34,329.26Z" transform="translate(0.39)"/><path class="cls-2" d="M728.45,288.91a3.13,3.13,0,1,1-3.13-3.11A3.12,3.12,0,0,1,728.45,288.91Zm12.52,0a3.13,3.13,0,1,1-3.13-3.11A3.12,3.12,0,0,1,741,288.91Zm9.38,3.1a3.11,3.11,0,1,0-3.12-3.1A3.12,3.12,0,0,0,750.35,292Zm15.65-3.1a3.13,3.13,0,1,1-3.13-3.11A3.12,3.12,0,0,1,766,288.91Zm9.39,3.1a3.11,3.11,0,1,0-3.13-3.1A3.12,3.12,0,0,0,775.39,292Zm15.64-3.1a3.13,3.13,0,1,1-3.13-3.11A3.12,3.12,0,0,1,791,288.91Zm9.39,3.1a3.11,3.11,0,1,0-3.13-3.1A3.12,3.12,0,0,0,800.42,292Z" transform="translate(0.39)"/><path class="cls-2" d="M753.48,301.32a3.13,3.13,0,1,1-3.13-3.1A3.12,3.12,0,0,1,753.48,301.32Zm-12.51,0a3.13,3.13,0,1,1-3.13-3.1A3.12,3.12,0,0,1,741,301.32Zm21.9,3.11a3.11,3.11,0,1,0-3.13-3.11A3.12,3.12,0,0,0,762.87,304.43Zm15.65-3.11a3.13,3.13,0,1,1-3.13-3.1A3.12,3.12,0,0,1,778.52,301.32Zm9.38,3.11a3.11,3.11,0,1,0-3.13-3.11A3.12,3.12,0,0,0,787.9,304.43Zm15.65-3.11a3.13,3.13,0,1,1-3.13-3.1A3.12,3.12,0,0,1,803.55,301.32Zm9.38,3.11a3.11,3.11,0,1,0-3.13-3.11A3.12,3.12,0,0,0,812.93,304.43Z" transform="translate(0.39)"/><path class="cls-2" d="M753.48,313.74a3.13,3.13,0,1,1-3.13-3.11A3.12,3.12,0,0,1,753.48,313.74Zm12.52,0a3.13,3.13,0,1,1-3.13-3.11A3.12,3.12,0,0,1,766,313.74Zm9.39,3.1a3.11,3.11,0,1,0-3.13-3.1A3.12,3.12,0,0,0,775.39,316.84Zm15.64-3.1a3.13,3.13,0,1,1-3.13-3.11A3.12,3.12,0,0,1,791,313.74Zm9.39,3.1a3.11,3.11,0,1,0-3.13-3.1A3.12,3.12,0,0,0,800.42,316.84Zm15.64-3.1a3.13,3.13,0,1,1-3.13-3.11A3.12,3.12,0,0,1,816.06,313.74Zm9.39,3.1a3.11,3.11,0,1,0-3.13-3.1A3.12,3.12,0,0,0,825.45,316.84Z" transform="translate(0.39)"/><path class="cls-2" d="M741,326.15a3.13,3.13,0,1,1-3.13-3.1A3.12,3.12,0,0,1,741,326.15Zm-12.52,0a3.13,3.13,0,1,1-3.13-3.1A3.12,3.12,0,0,1,728.45,326.15Zm21.9,3.11a3.11,3.11,0,1,0-3.12-3.11A3.12,3.12,0,0,0,750.35,329.26ZM766,326.15a3.13,3.13,0,1,1-3.13-3.1A3.12,3.12,0,0,1,766,326.15Zm9.39,3.11a3.11,3.11,0,1,0-3.13-3.11A3.12,3.12,0,0,0,775.39,329.26ZM791,326.15a3.13,3.13,0,1,1-3.13-3.1A3.12,3.12,0,0,1,791,326.15Zm9.39,3.11a3.11,3.11,0,1,0-3.13-3.11A3.12,3.12,0,0,0,800.42,329.26Z" transform="translate(0.39)"/><path class="cls-3" d="M375,379.09a33.15,33.15,0,1,0-33.44-33.15A33.29,33.29,0,0,0,375,379.09Z" transform="translate(0.39)"/><path class="cls-3" d="M371.37,0c-52.26.37-95,42.47-95.78,94.28,0,.48,0,3.84,0,8.24a24.19,24.19,0,0,0,7.18,17.19,24.6,24.6,0,0,0,17.34,7.13h0a24.67,24.67,0,0,0,17.36-7.14,24.2,24.2,0,0,0,7.18-17.22V97.3a46,46,0,0,1,22.79-39.68,46.69,46.69,0,0,1,63.32,15.46,45.93,45.93,0,0,1-14.5,63.05h0S361.35,158.42,350.7,189h0a67.17,67.17,0,0,0-2.81,19.3c0,2.68.16,26.17.46,45.24A25,25,0,0,0,355.91,271a25.39,25.39,0,0,0,17.74,7.19h0a25.34,25.34,0,0,0,17.94-7.4A24.94,24.94,0,0,0,398.94,253c-.11-17.46-.16-37.79-.16-39.27,0-18.77,18.26-37.47,33.26-49.67a100,100,0,0,0,34.7-54.77,62.14,62.14,0,0,0,1.81-13.57,95.32,95.32,0,0,0-28.5-67.9A96.91,96.91,0,0,0,371.37,0Z" transform="translate(0.39)"/><path class="cls-4" d="M518.18,147.75a21.63,21.63,0,1,0-21.81-21.63A21.71,21.71,0,0,0,518.18,147.75Z" transform="translate(0.39)"/><path class="cls-5" d="M477.89,370.54H469l-4.25-34.09h13.16Z" transform="translate(0.39)"/><path class="cls-6" d="M462.61,368H479.8v10.73h-28a10.64,10.64,0,0,1,3.17-7.59,10.91,10.91,0,0,1,7.65-3.14Z" transform="translate(0.39)"/><path class="cls-5" d="M546.94,370.54H538l-4.24-34.09h13.15Z" transform="translate(0.39)"/><path class="cls-6" d="M531.66,368h17.19v10.73h-28a10.64,10.64,0,0,1,3.17-7.59,10.91,10.91,0,0,1,7.65-3.14Z" transform="translate(0.39)"/><path class="cls-5" d="M514.87,147.87A17.7,17.7,0,1,0,497,130.17,17.78,17.78,0,0,0,514.87,147.87Z" transform="translate(0.39)"/><path class="cls-7" d="M525.51,205l8-18.2a23.2,23.2,0,0,0-21.08-32.32,23.68,23.68,0,0,0-9.74,2.15l-.78.36c-.5.24-1,.5-1.47.76a23,23,0,0,0-7.78,7.26A22.75,22.75,0,0,0,489,175l-3.52,29.28c-.89,2.3-32.52,85.33-21.46,148.71a3.24,3.24,0,0,0,1,1.78,3.3,3.3,0,0,0,1.83.87L478,357.1a3.32,3.32,0,0,0,2.33-.56,3.2,3.2,0,0,0,1.31-2l18.82-88.94a2.51,2.51,0,0,1,.86-1.41,2.56,2.56,0,0,1,1.55-.59,2.52,2.52,0,0,1,1.59.49,2.55,2.55,0,0,1,.95,1.35L532,359a3.23,3.23,0,0,0,1.17,1.71,3.3,3.3,0,0,0,2,.65,4.46,4.46,0,0,0,.63,0l13.7-2.62a3.23,3.23,0,0,0,2.64-3.47C550.09,332.94,539.4,221.43,525.51,205Z" transform="translate(0.39)"/><path class="cls-5" d="M445.49,144.9a7.08,7.08,0,0,0,.32,3.13,7.31,7.31,0,0,0,4.25,4.45,7.41,7.41,0,0,0,3.13.5l10,23.77,7.54-11.09-10.63-20.88a7.25,7.25,0,0,0-2.45-4.57,7.39,7.39,0,0,0-9.76.08,7.23,7.23,0,0,0-2.38,4.61Z" transform="translate(0.39)"/><path class="cls-5" d="M513.88,228.92a7.33,7.33,0,0,0,3-1,7.22,7.22,0,0,0,3.38-5.14,7.05,7.05,0,0,0-.24-3.13l21-15.16-12.64-4.69-18,15.11a7.34,7.34,0,0,0-3.91,3.44,7.17,7.17,0,0,0-.62,5.14,7.28,7.28,0,0,0,3,4.25,7.42,7.42,0,0,0,5.08,1.22Z" transform="translate(0.39)"/><path class="cls-7" d="M479.65,192.6a12.12,12.12,0,0,1-2.4-.23A11.84,11.84,0,0,1,472,190a11.71,11.71,0,0,1-3.47-4.54l-14-16.9a3.23,3.23,0,0,1-.63-1.22,3.19,3.19,0,0,1,.44-2.64,3.35,3.35,0,0,1,1-1l9.95-6.1a3.3,3.3,0,0,1,1.2-.45,3.5,3.5,0,0,1,1.29.05,3.16,3.16,0,0,1,1.16.54,3.21,3.21,0,0,1,.87.93l9.85,16.1L498.58,161a7.1,7.1,0,0,1,9,2.09,7,7,0,0,1-.78,9.13l-18.83,17A11.79,11.79,0,0,1,479.65,192.6Z" transform="translate(0.39)"/><path class="cls-7" d="M530.64,218h-.08a3.16,3.16,0,0,1-1.32-.31,3,3,0,0,1-1.08-.82l-8.85-10.23a3.15,3.15,0,0,1-.65-1.19,3.28,3.28,0,0,1-.11-1.36,3.26,3.26,0,0,1,1.43-2.26l16.56-10.94-15-17.88a7,7,0,0,1,1.58-9,7.18,7.18,0,0,1,4.67-1.58,7,7,0,0,1,4.57,1.83l18.23,17.66a11.85,11.85,0,0,1,1.69,15.7,12,12,0,0,1-4.36,3.72L533,217a3.27,3.27,0,0,1-1.09.75A3.54,3.54,0,0,1,530.64,218Z" transform="translate(0.39)"/><path class="cls-6" d="M510.33,180.33l-.43,0a3.29,3.29,0,0,1-2.7-2.21l-6.64-20.2a2.2,2.2,0,0,1,.07-1.56,2.26,2.26,0,0,1,1.09-1.13l.21-.1.59-.27a23.76,23.76,0,0,1,9.89-2.18,22.89,22.89,0,0,1,12.47,3.72,2.23,2.23,0,0,1,1,1.41,2.26,2.26,0,0,1-.31,1.68l-12.47,19.37a3.37,3.37,0,0,1-1.18,1.1,3.14,3.14,0,0,1-1.56.39Z" transform="translate(0.39)"/><path class="cls-4" d="M535.37,116.47a7.08,7.08,0,1,0-7.13-7.07A7.1,7.1,0,0,0,535.37,116.47Z" transform="translate(0.39)"/><path class="cls-4" d="M510.91,101.62a19,19,0,0,0-13.36,5.49A18.63,18.63,0,0,0,492,120.36v7.93h9.84l4.7-7.93,1.41,7.93H537.8l-8-7.93a18.63,18.63,0,0,0-5.54-13.25,19,19,0,0,0-13.36-5.49Z" transform="translate(0.39)"/><path class="cls-4" d="M539,104.55a11,11,0,0,1,4.61-5.91A11.08,11.08,0,0,1,551,97.06c4.54.75,8.14,4.38,10.28,8.43s3.13,8.57,4.57,12.92,3.49,8.7,7.12,11.52,9.22,3.57,12.79.68a14.45,14.45,0,0,1-3.87,8,14.67,14.67,0,0,1-23.37-2.86c-1.89-3.32-2.37-7.22-2.93-11s-1.29-7.67-3.54-10.77-6.46-5.11-10-3.7Z" transform="translate(0.39)"/><path class="cls-6" d="M307,115.35a24.71,24.71,0,0,1-17.35-7.13A24.26,24.26,0,0,1,282.5,91c0-4.39,0-7.76,0-8.24a94.19,94.19,0,0,1,11.16-43.17,94.52,94.52,0,0,0-18.43,54.71c0,.47,0,3.84,0,8.24a24.2,24.2,0,0,0,7.19,17.19,24.65,24.65,0,0,0,17.34,7.13h0a24.76,24.76,0,0,0,14.81-4.94,24.28,24.28,0,0,0,8.8-12.79,24.56,24.56,0,0,1-16.34,6.2Z" transform="translate(0.39)"/><path class="cls-6" d="M373,51.25a46.83,46.83,0,0,1,21.33,6.3,45.88,45.88,0,0,1,19.13,58.14,45.93,45.93,0,0,0-10.81-69A46.62,46.62,0,0,0,335.4,67.42,46.61,46.61,0,0,1,373,51.25Z" transform="translate(0.39)"/><path class="cls-6" d="M380.58,266.69a25.38,25.38,0,0,1-17.74-7.2A25,25,0,0,1,355.29,242c-.31-19.07-.47-42.56-.47-45.25a67.41,67.41,0,0,1,2.82-19.29h0a68.09,68.09,0,0,1,4-9.15A79.13,79.13,0,0,0,350.36,189h0a67.46,67.46,0,0,0-2.82,19.29c0,2.69.16,26.18.47,45.25A25,25,0,0,0,355.57,271a25.38,25.38,0,0,0,17.74,7.2h0a25.46,25.46,0,0,0,15.17-5,25.13,25.13,0,0,0,9.11-13,25.33,25.33,0,0,1-17,6.52Z" transform="translate(0.39)"/><path class="cls-5" d="M153.37,370.86h8.91l4.24-34.08H153.37Z" transform="translate(0.39)"/><path class="cls-6" d="M179.46,379.07h-28V368.34h17.18a10.85,10.85,0,0,1,7.65,3.14,10.68,10.68,0,0,1,3.17,7.59Z" transform="translate(0.39)"/><path class="cls-5" d="M121.39,370.86h8.91l4.24-34.08H121.39Z" transform="translate(0.39)"/><path class="cls-6" d="M147.48,379.07h-28V368.34h17.18a10.87,10.87,0,0,1,7.65,3.14,10.68,10.68,0,0,1,3.17,7.59Z" transform="translate(0.39)"/><path class="cls-7" d="M129.17,360.38l-8.7-.45a3.56,3.56,0,0,1-1.29-.33,3.37,3.37,0,0,1-1.92-3.25l10.4-114.21L175.57,255l4.61-1.25L165.75,354.82a3.34,3.34,0,0,1-1.08,2,3.42,3.42,0,0,1-2.09.87l-9.38.43a3.25,3.25,0,0,1-1.38-.21,3.32,3.32,0,0,1-1.18-.74,3.46,3.46,0,0,1-.78-1.14,3.34,3.34,0,0,1-.24-1.36l1.7-60.68a1.13,1.13,0,0,0-1-1.15,1.18,1.18,0,0,0-.8.2,1.16,1.16,0,0,0-.45.69l-16.39,64a3.41,3.41,0,0,1-1.18,1.94,3.44,3.44,0,0,1-2.14.75Z" transform="translate(0.39)"/><path class="cls-5" d="M155,148.7A17.7,17.7,0,1,0,137.12,131,17.78,17.78,0,0,0,155,148.7Z" transform="translate(0.39)"/><path class="cls-8" d="M125.25,183l2,42,.71,15.27a3.34,3.34,0,0,0,.65,1.85,3.39,3.39,0,0,0,1.58,1.16l46,16.54a3.49,3.49,0,0,0,1.16.2,3.53,3.53,0,0,0,1.32-.26,3.3,3.3,0,0,0,1.84-1.87,3.15,3.15,0,0,0,.23-1.32l-1.89-75.5a26.45,26.45,0,0,0-6.5-16.85,26.89,26.89,0,0,0-15.84-8.87l-1.35-.19a26.49,26.49,0,0,0-11.36,1.07A26.22,26.22,0,0,0,134,162a26.67,26.67,0,0,0-8.71,21Z" transform="translate(0.39)"/><path class="cls-5" d="M198.18,251.44a7.5,7.5,0,0,1-2.91-1.7,7.3,7.3,0,0,1-1.82-2.82,7.2,7.2,0,0,1-.36-3.32,7.3,7.3,0,0,1,1.19-3.14l-15.61-20.58,13.47-.82,12.76,19.67a7.26,7.26,0,0,1-1.7,12.5,7.41,7.41,0,0,1-5,.21Z" transform="translate(0.39)"/><path class="cls-8" d="M187.2,236.74a3.38,3.38,0,0,1-1.1-.72,3.35,3.35,0,0,1-.74-1.09l-23.52-55.57a8.9,8.9,0,0,1,0-6.87,8.9,8.9,0,0,1,1.95-2.93,9.1,9.1,0,0,1,6.4-2.66,9.14,9.14,0,0,1,6.42,2.6,9.14,9.14,0,0,1,2,2.91L202.06,228a3.36,3.36,0,0,1-1.82,4.41l-10.44,4.35a3.39,3.39,0,0,1-1.3.26,3.45,3.45,0,0,1-1.3-.25Z" transform="translate(0.39)"/><path class="cls-9" d="M149.23,234.78l22.59-42.89a3.53,3.53,0,0,1,2.08-1.72,3.58,3.58,0,0,1,2.7.24l32.79,17a3.5,3.5,0,0,1,1.73,2.06,3.45,3.45,0,0,1-.23,2.67L188.3,255a3.52,3.52,0,0,1-2.08,1.72,3.56,3.56,0,0,1-2.7-.23l-32.79-17a3.51,3.51,0,0,1-1.74-2.06A3.48,3.48,0,0,1,149.23,234.78Z" transform="translate(0.39)"/><path class="cls-5" d="M164.38,215.19a7.3,7.3,0,0,0-4.83-4.42,7.34,7.34,0,0,0-6.45,1.2l-21.64-14.23,0,13.38L152,222.59a7.31,7.31,0,0,0,4.4,2.4,7.4,7.4,0,0,0,4.93-1,7.31,7.31,0,0,0,3.16-3.87,7.23,7.23,0,0,0-.09-5Z" transform="translate(0.39)"/><path class="cls-8" d="M137,218.2l-17.69-13.9a12.3,12.3,0,0,1-5.68-19.55l16.06-20.87a7.28,7.28,0,0,1,4.42-2.56,7.37,7.37,0,0,1,5,.93,7.23,7.23,0,0,1,3,9L129.44,191.9l18.68,8.78a3.54,3.54,0,0,1,1.13.86,3.37,3.37,0,0,1,.67,1.25,3.21,3.21,0,0,1,.1,1.41,3.16,3.16,0,0,1-.49,1.32L142,217.35a3.37,3.37,0,0,1-1,1,3.51,3.51,0,0,1-1.32.52h-.05a3.42,3.42,0,0,1-1.39-.07,3.59,3.59,0,0,1-1.24-.61Z" transform="translate(0.39)"/><path class="cls-4" d="M141.48,142.85a1.47,1.47,0,0,1-.07-.69,1.51,1.51,0,0,1,.24-.65,1.57,1.57,0,0,1,1.18-.69,3.76,3.76,0,0,1,1.39.36,3.46,3.46,0,0,1,1.13.88,10.49,10.49,0,0,0,2.24,1.9,1.92,1.92,0,0,0,2.52-.46,3.41,3.41,0,0,0-.13-2.7,26.76,26.76,0,0,1-1.19-7c-.08-2.67.3-5.45,1.79-7.53,1.92-2.69,5.36-3.71,8.61-3.63s6.45,1.07,9.68,1.7c1.11.21,2.41.32,3.16-.53s.5-2.38.16-3.61c-.87-3.18-1.8-6.47-3.82-9a13.84,13.84,0,0,0-8.77-4.9,21.29,21.29,0,0,0-9.79,1.11A26.27,26.27,0,0,0,137,116.2a21,21,0,0,0-4.05,15.57,19.15,19.15,0,0,0,7.18,12.15Z" transform="translate(0.39)"/><path class="cls-6" d="M367.58,371a33.15,33.15,0,0,1-19.16-22.69,32.91,32.91,0,0,1,6.76-28.83A33.12,33.12,0,0,0,341.6,343.2,33,33,0,0,0,350.55,369a33.59,33.59,0,0,0,50.1-1.6A33.59,33.59,0,0,1,367.58,371Z" transform="translate(0.39)"/><path class="cls-10" d="M659.39,372.53h0Zm-5.47.42c1,.19,1.89.37,2.64.55-.75.18-1.62.36-2.64.55-4.31.8-10.72,1.58-19.07,2.32-16.67,1.49-40.83,2.84-70.73,4C504.35,382.6,421.75,384,330.5,384s-173.85-1.4-233.62-3.66c-29.9-1.13-54.06-2.48-70.73-4-8.35-.74-14.76-1.52-19.07-2.32-1-.19-1.89-.37-2.64-.55.75-.18,1.62-.36,2.64-.55,4.31-.8,10.72-1.58,19.07-2.32,16.67-1.49,40.83-2.84,70.73-4C156.65,364.4,239.25,363,330.5,363s173.85,1.4,233.62,3.66c29.9,1.13,54.06,2.48,70.73,4C643.2,371.37,649.61,372.15,653.92,373ZM1.61,372.53h0Zm0,1.94h0Zm657.77,0h0Z" transform="translate(0.39)"/></svg>